<svg width="206" height="80" viewBox="0 0 206 80" fill="none" xmlns="http://www.w3.org/2000/svg">
<g clip-path="url(#clip0_330_2)">
<path fill-rule="evenodd" clip-rule="evenodd" d="M51.8998 35.12C52.6998 36.34 59.5598 41.13 61.3198 42.5C64.1898 44.73 63.8198 44.48 68.1598 44.45C71.0198 44.43 73.8898 44.42 76.7498 44.2C87.3098 43.4 97.9798 42.36 108.6 41.61L157.21 38.88C162.2 38.7 169.23 38.95 173.91 38.32C170.17 34.25 167.22 34.83 162.21 34.83L83.6098 34.99C74.2898 34.99 60.7098 34.19 51.8998 35.12ZM101.31 9.81L149.5 9.85C152.38 9.85 153.04 8.09 154.51 6.57C156 5.03 157.55 3.8 158.64 2.05L109.93 2C107.57 2.19 102.46 7.82 101.31 9.81ZM41.3598 27.58L159.8 27.46L151.04 19.13C148.31 16.73 148.65 17.28 144.05 17.31H29.2998C30.3798 19.58 32.7498 20.49 35.0398 22.9C36.4398 24.36 39.2498 27.58 41.3598 27.58Z" fill="white"/>
<path d="M193.45 75.46C193.66 75.71 193.91 75.95 194.19 76.19C194.47 76.42 194.78 76.63 195.13 76.82C195.48 77.01 195.85 77.17 196.26 77.29C196.67 77.42 197.1 77.49 197.56 77.5V78.59C196.45 78.56 195.49 78.34 194.68 77.93C193.87 77.52 193.2 76.99 192.68 76.36L193.45 75.46ZM202.77 74.63C202.77 75.08 202.69 75.53 202.54 75.98C202.39 76.43 202.13 76.85 201.77 77.23C201.41 77.61 200.93 77.92 200.33 78.17C199.73 78.42 198.99 78.56 198.11 78.59V77.5C198.77 77.49 199.31 77.38 199.75 77.2C200.19 77.01 200.54 76.79 200.8 76.52C201.06 76.25 201.24 75.96 201.35 75.64C201.46 75.32 201.51 75.01 201.51 74.72C201.51 74.27 201.42 73.89 201.23 73.57C201.04 73.26 200.79 72.99 200.48 72.78C200.17 72.56 199.8 72.38 199.39 72.22C198.98 72.06 198.55 71.92 198.1 71.8V70.46C198.66 70.62 199.22 70.79 199.77 70.99C200.33 71.19 200.83 71.43 201.27 71.73C201.71 72.03 202.07 72.42 202.35 72.89C202.63 73.35 202.77 73.93 202.77 74.63ZM201.66 66.97C201.2 66.42 200.66 66.01 200.05 65.72C199.44 65.43 198.79 65.27 198.09 65.23V64.14C199.04 64.18 199.88 64.37 200.6 64.71C201.33 65.04 201.95 65.5 202.45 66.09L201.66 66.97ZM194.38 67.79C194.38 68.17 194.46 68.49 194.63 68.76C194.8 69.03 195.03 69.25 195.32 69.44C195.61 69.63 195.95 69.79 196.34 69.92C196.72 70.05 197.13 70.19 197.56 70.31V71.65C197.01 71.49 196.48 71.33 195.94 71.15C195.41 70.98 194.93 70.75 194.51 70.47C194.08 70.19 193.74 69.84 193.48 69.42C193.22 69 193.09 68.48 193.09 67.85C193.09 67.29 193.21 66.78 193.44 66.33C193.67 65.88 193.99 65.49 194.4 65.17C194.81 64.85 195.28 64.6 195.82 64.42C196.37 64.24 196.94 64.14 197.56 64.12V65.21C197.09 65.22 196.67 65.29 196.29 65.42C195.91 65.55 195.57 65.72 195.28 65.96C194.99 66.19 194.77 66.46 194.61 66.77C194.46 67.07 194.38 67.41 194.38 67.79ZM185.53 72.99H186.96L190.63 78.34H189.07L185.53 72.99ZM189.2 68.44C189.2 68.01 189.13 67.61 188.98 67.24C188.83 66.87 188.62 66.55 188.35 66.28C188.07 66.01 187.75 65.81 187.36 65.66C186.98 65.51 186.55 65.44 186.09 65.44H182.69V64.35H186.19C186.79 64.35 187.35 64.44 187.87 64.63C188.39 64.82 188.84 65.08 189.22 65.44C189.6 65.79 189.9 66.22 190.12 66.72C190.34 67.22 190.45 67.79 190.45 68.44C190.45 69.08 190.34 69.66 190.12 70.16C189.9 70.67 189.6 71.09 189.22 71.44C188.84 71.79 188.38 72.06 187.87 72.25C187.35 72.44 186.79 72.54 186.19 72.54H182.69V71.44H186.09C186.56 71.44 186.98 71.37 187.36 71.22C187.74 71.07 188.07 70.87 188.35 70.6C188.62 70.33 188.83 70.02 188.98 69.66C189.13 69.29 189.2 68.89 189.2 68.44ZM182.18 78.34H180.98V64.35H182.18V78.34ZM178.04 77.25V78.34H170.89V77.25H178.04ZM177.89 70.62V71.71H170.88V70.62H177.89ZM178.04 64.35V65.44H170.89V64.35H178.04ZM169.17 64.35H170.37V78.34H169.17V64.35ZM160.75 71.35L166.92 78.34H165.38L159.97 72.15L160.75 71.35ZM164.8 64.35H166.33L158.56 72.89V71.21L164.8 64.35ZM156.85 64.35H158.05V78.34H156.85V64.35ZM148.94 72.99H150.37L154.04 78.34H152.48L148.94 72.99ZM152.62 68.44C152.62 68.01 152.55 67.61 152.4 67.24C152.25 66.87 152.04 66.55 151.77 66.28C151.49 66.01 151.17 65.81 150.78 65.66C150.4 65.51 149.97 65.44 149.51 65.44H146.11V64.35H149.61C150.21 64.35 150.77 64.44 151.29 64.63C151.81 64.82 152.26 65.08 152.64 65.44C153.02 65.79 153.32 66.22 153.54 66.72C153.76 67.22 153.87 67.79 153.87 68.44C153.87 69.08 153.76 69.66 153.54 70.16C153.32 70.67 153.02 71.09 152.64 71.44C152.25 71.79 151.8 72.06 151.29 72.25C150.77 72.44 150.21 72.54 149.61 72.54H146.11V71.44H149.51C149.98 71.44 150.4 71.37 150.78 71.22C151.16 71.07 151.49 70.87 151.77 70.6C152.04 70.33 152.25 70.02 152.4 69.66C152.55 69.29 152.62 68.89 152.62 68.44ZM145.59 78.34H144.39V64.35H145.59V78.34ZM141.46 71.35C141.46 72.34 141.31 73.27 141 74.14C140.69 75.01 140.26 75.76 139.69 76.41C139.12 77.05 138.44 77.56 137.64 77.94C136.84 78.31 135.95 78.53 134.98 78.57V77.5C135.78 77.46 136.5 77.28 137.14 76.95C137.78 76.63 138.33 76.2 138.78 75.65C139.23 75.1 139.58 74.47 139.83 73.73C140.07 73 140.2 72.2 140.2 71.35C140.2 70.5 140.08 69.7 139.83 68.97C139.58 68.24 139.23 67.6 138.78 67.06C138.33 66.52 137.78 66.09 137.14 65.77C136.5 65.45 135.78 65.27 134.98 65.23V64.14C135.96 64.18 136.84 64.39 137.64 64.77C138.44 65.15 139.12 65.66 139.69 66.3C140.26 66.95 140.69 67.7 141 68.57C141.31 69.44 141.46 70.37 141.46 71.35ZM127.87 71.35C127.87 70.35 128.02 69.41 128.33 68.54C128.64 67.67 129.08 66.92 129.65 66.27C130.22 65.63 130.92 65.12 131.73 64.74C132.54 64.37 133.45 64.16 134.46 64.14V65.21C133.64 65.24 132.89 65.41 132.24 65.73C131.58 66.05 131.02 66.48 130.56 67.03C130.1 67.58 129.74 68.22 129.5 68.95C129.26 69.68 129.14 70.49 129.14 71.35C129.14 72.22 129.26 73.02 129.5 73.76C129.74 74.5 130.09 75.14 130.56 75.69C131.03 76.24 131.58 76.67 132.24 76.98C132.89 77.3 133.64 77.47 134.46 77.49V78.56C133.46 78.54 132.55 78.33 131.74 77.95C130.93 77.57 130.23 77.06 129.66 76.42C129.09 75.77 128.65 75.02 128.34 74.15C128.03 73.29 127.87 72.36 127.87 71.35ZM117.72 67.31L114.83 77.62L114.26 75.69L117.18 65.3L117.72 67.31ZM122.8 77.82C122.73 77.59 122.66 77.36 122.59 77.1C122.52 76.85 122.45 76.62 122.39 76.41C122.33 76.2 122.28 76.03 122.25 75.88L122.19 75.67L125.3 64.34H126.64L122.8 77.82ZM117.45 64.35H118.54L122.44 78.34H121.35L117.45 64.35ZM109.29 64.35H110.63L114.49 78.34H113.29L109.29 64.35ZM108.15 64.35V65.44H104.1V64.35H108.15ZM103.58 64.35V78.34H102.38V64.35H103.58ZM101.86 65.43H97.8001V64.34H101.87V65.43H101.86ZM95.8401 77.25V78.34H88.6901V77.25H95.8401ZM95.7001 70.62V71.71H88.6901V70.62H95.7001ZM95.8401 64.35V65.44H88.6901V64.35H95.8401ZM86.9701 64.35H88.1701V78.34H86.9701V64.35ZM73.3801 78.34H72.1901V65.55L73.3801 67.27V78.34ZM82.3401 64.35H83.5401V77.28L82.3401 75.68V64.35ZM73.5901 64.35L83.6201 78.34H81.9601L72.0801 64.35H73.5901ZM68.6201 71.47V72.48H63.5001L63.5901 71.47H68.6201ZM64.8101 64.35V65.44H60.7601V64.35H64.8101ZM60.2401 64.35V78.34H59.0401V64.35H60.2401ZM58.5201 65.43H54.4501V64.34H58.5201V65.43ZM41.9501 72.26V78.34H40.7701V72.26H41.9501ZM50.8001 64.35H51.9801V78.34H50.8001V64.35ZM41.9501 70.64H50.2801V71.73H40.7701V64.35H41.9501V70.64ZM38.3901 76.1C37.7601 76.87 37.0301 77.48 36.2001 77.92C35.3701 78.36 34.4001 78.59 33.2901 78.6V77.5C34.1301 77.5 34.9101 77.31 35.6201 76.95C36.3301 76.58 36.9101 76.08 37.3601 75.46L38.3901 76.1ZM27.4401 71.35C27.4401 72.2 27.5801 72.99 27.8501 73.71C28.1201 74.43 28.5001 75.06 28.9701 75.6C29.4501 76.14 30.0001 76.57 30.6601 76.9C31.3101 77.23 32.0101 77.42 32.7701 77.47V78.56C31.8401 78.51 30.9701 78.29 30.1601 77.91C29.3601 77.53 28.6601 77.03 28.0701 76.4C27.4801 75.77 27.0201 75.03 26.6901 74.18C26.3601 73.33 26.1901 72.39 26.1901 71.35C26.1901 70.33 26.3601 69.39 26.6901 68.53C27.0301 67.67 27.4901 66.93 28.0701 66.3C28.6601 65.67 29.3501 65.17 30.1601 64.8C30.9701 64.43 31.8401 64.21 32.7701 64.14V65.23C32.0101 65.3 31.3101 65.49 30.6601 65.8C30.0101 66.11 29.4501 66.54 28.9701 67.08C28.4901 67.62 28.1201 68.25 27.8501 68.97C27.5801 69.69 27.4401 70.49 27.4401 71.35ZM37.3601 67.25C36.9101 66.63 36.3301 66.15 35.6201 65.78C34.9101 65.41 34.1301 65.22 33.2901 65.21V64.12C34.3901 64.13 35.3701 64.36 36.2201 64.81C37.0701 65.25 37.7801 65.85 38.3701 66.6L37.3601 67.25ZM21.5401 73.43L22.0001 74.58H16.0101L16.4501 73.43H21.5401V73.43ZM25.4601 78.34H24.0801L19.2901 66.34L19.9501 64.66L25.4601 78.34ZM13.9101 78.34H12.5301L18.2601 64.35H19.5201L13.9101 78.34ZM11.7601 64.35H13.2001L8.04012 71.8L7.35012 70.8L11.7601 64.35ZM0.870117 64.35H2.31012L7.63012 72.14V78.35H6.42012V72.37L0.870117 64.35Z" fill="white"/>
<path d="M193.48 76.16L193.47 76.15L193.28 76.37C193.45 76.55 193.64 76.72 193.85 76.88C194.16 77.12 194.5 77.34 194.89 77.53C195.27 77.72 195.68 77.87 196.12 77.97C196.43 78.04 196.77 78.09 197.11 78.12V77.93L196.83 77.89C196.59 77.85 196.36 77.8 196.14 77.73C195.92 77.66 195.71 77.59 195.51 77.5C195.32 77.42 195.12 77.33 194.93 77.22C194.74 77.12 194.56 77.01 194.4 76.9C194.23 76.79 194.07 76.67 193.92 76.54C193.76 76.42 193.61 76.29 193.48 76.16ZM202.26 75.23C202.29 75.03 202.31 74.83 202.31 74.63C202.31 74.31 202.28 74.03 202.22 73.78C202.16 73.54 202.07 73.31 201.96 73.12C201.84 72.91 201.7 72.72 201.54 72.56C201.38 72.39 201.21 72.24 201.02 72.11C200.82 71.97 200.6 71.85 200.37 71.73C200.14 71.62 199.89 71.51 199.63 71.42C199.37 71.33 199.1 71.24 198.81 71.15L198.56 71.07V71.46L198.9 71.57C199.12 71.64 199.34 71.72 199.55 71.8C199.77 71.88 199.98 71.98 200.18 72.08C200.38 72.18 200.57 72.29 200.74 72.41C200.93 72.54 201.09 72.68 201.24 72.83C201.39 72.99 201.52 73.16 201.63 73.35C201.75 73.55 201.84 73.76 201.89 74C201.95 74.23 201.98 74.47 201.98 74.73C201.98 74.9 201.96 75.08 201.93 75.26C201.9 75.44 201.85 75.62 201.79 75.8C201.73 75.99 201.64 76.18 201.53 76.35C201.42 76.52 201.29 76.69 201.14 76.85L201.13 76.86C200.97 77.02 200.79 77.16 200.59 77.29C200.39 77.42 200.17 77.53 199.93 77.63C199.68 77.74 199.4 77.82 199.1 77.87C198.93 77.9 198.76 77.92 198.57 77.94V78.12C198.81 78.1 199.03 78.07 199.25 78.03C199.59 77.97 199.89 77.88 200.17 77.77C200.45 77.65 200.69 77.53 200.91 77.39C201.12 77.25 201.3 77.1 201.46 76.94C201.62 76.78 201.75 76.6 201.86 76.42C201.97 76.24 202.06 76.05 202.13 75.86C202.17 75.64 202.22 75.43 202.26 75.23ZM201.19 65.89C201.35 66.01 201.51 66.15 201.66 66.3L201.84 66.1C201.69 65.95 201.52 65.81 201.34 65.68C201.05 65.47 200.74 65.28 200.41 65.13C200.07 64.98 199.71 64.85 199.33 64.77C199.08 64.71 198.82 64.67 198.55 64.64V64.82C198.78 64.85 199 64.89 199.22 64.95C199.57 65.04 199.92 65.16 200.25 65.32C200.58 65.47 200.9 65.66 201.19 65.89ZM194 68.42C193.95 68.22 193.92 68.01 193.92 67.78C193.92 67.56 193.94 67.34 193.99 67.14C194.04 66.93 194.11 66.73 194.21 66.54C194.3 66.35 194.42 66.18 194.55 66.02C194.68 65.86 194.83 65.72 195 65.58C195.16 65.45 195.34 65.33 195.54 65.23C195.73 65.13 195.94 65.04 196.15 64.97C196.45 64.87 196.76 64.81 197.11 64.77V64.6L196.75 64.65C196.48 64.7 196.22 64.76 195.98 64.84C195.74 64.92 195.5 65.02 195.29 65.14C195.08 65.25 194.88 65.38 194.7 65.52C194.52 65.66 194.36 65.82 194.23 65.99C194.09 66.16 193.97 66.34 193.87 66.54C193.77 66.73 193.7 66.94 193.65 67.15C193.6 67.37 193.58 67.6 193.58 67.85C193.58 68.13 193.61 68.38 193.66 68.61C193.71 68.83 193.79 69.02 193.9 69.19C194.01 69.37 194.14 69.54 194.29 69.69C194.44 69.84 194.6 69.98 194.79 70.1C194.99 70.23 195.2 70.35 195.41 70.45C195.64 70.56 195.88 70.65 196.11 70.73L197.13 71.05V70.65L196.22 70.35C196.02 70.28 195.82 70.2 195.63 70.11C195.44 70.02 195.26 69.92 195.1 69.82C194.92 69.71 194.77 69.58 194.63 69.45C194.49 69.31 194.37 69.16 194.26 69C194.13 68.82 194.05 68.63 194 68.42ZM194.84 67.79C194.84 67.94 194.86 68.08 194.89 68.2C194.92 68.31 194.96 68.42 195.02 68.51C195.09 68.61 195.16 68.71 195.25 68.8C195.34 68.89 195.45 68.98 195.57 69.05C195.7 69.13 195.85 69.21 196 69.28C196.15 69.35 196.32 69.42 196.5 69.48L197.1 69.68L197.66 69.85L198.24 70.01L199.09 70.26C199.36 70.34 199.64 70.44 199.94 70.54C200.24 70.64 200.52 70.76 200.78 70.89C201.05 71.02 201.3 71.17 201.54 71.33C201.79 71.5 202.01 71.69 202.21 71.91C202.41 72.13 202.59 72.37 202.75 72.63C202.91 72.9 203.04 73.21 203.12 73.55C203.2 73.88 203.24 74.24 203.24 74.62C203.24 74.87 203.22 75.12 203.18 75.37C203.14 75.62 203.07 75.87 202.99 76.12C202.9 76.38 202.78 76.63 202.64 76.87C202.5 77.1 202.32 77.32 202.12 77.53C201.92 77.75 201.68 77.94 201.4 78.12C201.13 78.29 200.84 78.45 200.51 78.58C200.18 78.72 199.81 78.82 199.41 78.9C199.02 78.97 198.59 79.02 198.13 79.04H198.04V79.05H197.91L197.65 79.06V79.04H197.57C196.98 79.03 196.43 78.96 195.93 78.84C195.42 78.72 194.94 78.55 194.49 78.33C194.06 78.11 193.66 77.86 193.3 77.58C192.94 77.3 192.62 76.98 192.34 76.64L192.1 76.34L193.48 74.74L193.82 75.15C193.92 75.27 194.03 75.38 194.14 75.49C194.25 75.6 194.37 75.71 194.51 75.82C194.64 75.92 194.77 76.03 194.91 76.12C195.06 76.22 195.21 76.31 195.37 76.4C195.52 76.48 195.69 76.56 195.87 76.64C196.05 76.71 196.23 76.78 196.42 76.84C196.6 76.9 196.79 76.94 196.99 76.97C197.19 77 197.39 77.02 197.6 77.03L197.8 77.04L198.11 77.03C198.41 77.02 198.69 77 198.94 76.95C199.18 76.91 199.39 76.84 199.58 76.76C199.78 76.68 199.95 76.58 200.1 76.49C200.25 76.4 200.37 76.29 200.48 76.19C200.59 76.08 200.68 75.96 200.76 75.84C200.83 75.73 200.89 75.61 200.93 75.48C200.98 75.34 201.01 75.2 201.04 75.07C201.06 74.94 201.07 74.82 201.07 74.7C201.07 74.51 201.05 74.34 201.01 74.18C200.97 74.03 200.92 73.9 200.85 73.78C200.77 73.65 200.68 73.53 200.58 73.42C200.48 73.31 200.36 73.21 200.23 73.13C200.09 73.03 199.93 72.94 199.77 72.86C199.6 72.78 199.42 72.7 199.23 72.62C199.03 72.54 198.83 72.47 198.62 72.4L198.03 72.22V72.23L196.63 71.82L195.82 71.56C195.53 71.46 195.26 71.35 195.01 71.24C194.75 71.12 194.51 70.98 194.28 70.83C194.04 70.67 193.82 70.5 193.63 70.3C193.44 70.1 193.26 69.88 193.12 69.64C192.96 69.39 192.85 69.11 192.77 68.8C192.7 68.5 192.66 68.17 192.66 67.83C192.66 67.52 192.69 67.22 192.76 66.93C192.83 66.64 192.93 66.36 193.06 66.1C193.19 65.84 193.35 65.6 193.53 65.38C193.71 65.16 193.91 64.96 194.14 64.78C194.37 64.6 194.61 64.44 194.87 64.31C195.13 64.18 195.4 64.06 195.7 63.96C196 63.86 196.3 63.78 196.61 63.73C196.92 63.68 197.24 63.64 197.57 63.64L198.04 63.63V63.67H198.13C198.63 63.69 199.11 63.75 199.55 63.85C200 63.95 200.42 64.09 200.81 64.27C201.21 64.45 201.57 64.67 201.9 64.91C202.23 65.16 202.54 65.44 202.81 65.77L203.07 66.07L201.66 67.63L201.32 67.24C201.11 66.99 200.88 66.77 200.64 66.58C200.4 66.39 200.14 66.23 199.87 66.1C199.6 65.97 199.31 65.87 199.01 65.79C198.71 65.71 198.4 65.67 198.08 65.65L197.68 65.63H197.58C197.16 65.64 196.78 65.71 196.44 65.82C196.27 65.88 196.11 65.94 195.97 66.02C195.83 66.09 195.7 66.18 195.57 66.28C195.45 66.37 195.35 66.48 195.25 66.59C195.16 66.7 195.08 66.82 195.02 66.94C194.96 67.06 194.91 67.19 194.88 67.33C194.85 67.49 194.84 67.64 194.84 67.79ZM186.72 73.45H186.38L189.32 77.88H189.77L186.72 73.45ZM189.6 67.73C189.64 67.96 189.66 68.2 189.66 68.44C189.66 68.69 189.64 68.93 189.6 69.16C189.56 69.4 189.49 69.62 189.41 69.83C189.33 70.04 189.22 70.24 189.1 70.42C188.98 70.6 188.84 70.77 188.68 70.93C188.52 71.09 188.34 71.22 188.15 71.34C187.96 71.46 187.75 71.56 187.54 71.65C187.32 71.73 187.09 71.8 186.85 71.84C186.61 71.88 186.36 71.9 186.11 71.9H183.17V72.08H186.22C186.5 72.08 186.76 72.06 187.01 72.01C187.26 71.97 187.51 71.9 187.74 71.82C187.98 71.73 188.2 71.63 188.39 71.51C188.59 71.39 188.77 71.25 188.94 71.1C189.1 70.95 189.25 70.78 189.39 70.59C189.52 70.4 189.63 70.2 189.73 69.97C189.83 69.75 189.9 69.51 189.95 69.26C190 69 190.02 68.73 190.02 68.43C190.02 68.13 190 67.86 189.95 67.61C189.9 67.36 189.83 67.12 189.73 66.9C189.64 66.68 189.52 66.48 189.39 66.29C189.26 66.1 189.11 65.93 188.94 65.78C188.6 65.47 188.2 65.23 187.74 65.07C187.5 64.98 187.26 64.92 187.01 64.88C186.76 64.84 186.49 64.82 186.21 64.82H183.16V64.99H186.1C186.35 64.99 186.6 65.01 186.84 65.05C187.08 65.09 187.31 65.15 187.53 65.24C187.75 65.32 187.95 65.43 188.15 65.55C188.34 65.67 188.52 65.81 188.68 65.96C188.84 66.12 188.98 66.29 189.11 66.48C189.23 66.66 189.34 66.87 189.42 67.08C189.49 67.27 189.55 67.49 189.6 67.73ZM182.63 65.89V70.98H186.1C186.31 70.98 186.5 70.96 186.69 70.93C186.88 70.9 187.05 70.85 187.21 70.79C187.38 70.72 187.53 70.65 187.66 70.56C187.8 70.47 187.92 70.37 188.04 70.26C188.15 70.15 188.25 70.03 188.34 69.9C188.43 69.77 188.5 69.63 188.56 69.48C188.62 69.33 188.67 69.16 188.7 68.99C188.73 68.82 188.75 68.63 188.75 68.43C188.75 68.24 188.73 68.06 188.7 67.89C188.67 67.72 188.62 67.56 188.56 67.4C188.5 67.24 188.42 67.1 188.34 66.96C188.26 66.83 188.16 66.71 188.04 66.6C187.92 66.49 187.8 66.39 187.66 66.3C187.52 66.21 187.37 66.14 187.2 66.08C187.03 66.02 186.86 65.97 186.68 65.94C186.5 65.91 186.3 65.89 186.1 65.89H182.63V65.89ZM181.43 77.88H181.72V64.8H181.43V77.88ZM182.18 78.8H180.52V63.89H186.2C186.52 63.89 186.84 63.92 187.15 63.97C187.46 64.02 187.75 64.1 188.04 64.2C188.61 64.4 189.12 64.71 189.55 65.1C189.76 65.3 189.96 65.52 190.13 65.76C190.3 65.99 190.44 66.25 190.56 66.53C190.68 66.81 190.78 67.11 190.84 67.43C190.9 67.75 190.93 68.08 190.93 68.43C190.93 68.78 190.9 69.11 190.84 69.43C190.78 69.75 190.69 70.05 190.56 70.33C190.44 70.61 190.29 70.87 190.13 71.11C189.96 71.35 189.77 71.57 189.55 71.77C189.34 71.96 189.1 72.14 188.85 72.29C188.6 72.44 188.33 72.57 188.05 72.67C187.84 72.74 187.64 72.8 187.43 72.85L191.51 78.79H188.84L184.99 72.98H182.65V78.79H182.18V78.8ZM177.58 77.88V77.71H171.34V77.88H177.58ZM177.44 71.25V71.07H171.35V71.25H177.44ZM177.58 64.98V64.8H171.34V64.97H177.58V64.98ZM169.91 64.8H169.62V77.88H169.91V64.8ZM169.17 63.89H178.5V65.89H170.83V70.16H178.36V72.17H170.83V76.8H178.5V78.8H168.72V63.89H169.17ZM165.91 77.88L160.74 72.02L160.6 72.16L165.59 77.87H165.91V77.88ZM165.3 64.8H165L159.03 71.38V71.7L165.3 64.8ZM157.59 64.8H157.3V77.88H157.59V64.8ZM156.85 63.89H158.51V70.6L164.6 63.89H167.37L160.98 70.92L167.93 78.8H165.18C163.32 76.68 161.48 74.54 159.61 72.43L158.51 73.64V78.8H156.4V63.89H156.85ZM150.14 73.45H149.8L152.74 77.88H153.19L150.14 73.45ZM153.01 67.73C153.05 67.96 153.07 68.2 153.07 68.44C153.07 68.69 153.05 68.93 153.01 69.16C152.97 69.4 152.9 69.62 152.82 69.83C152.74 70.04 152.63 70.24 152.51 70.42C152.39 70.6 152.25 70.77 152.09 70.93C151.93 71.09 151.75 71.22 151.56 71.34C151.37 71.46 151.16 71.56 150.95 71.65C150.73 71.73 150.5 71.8 150.26 71.84C150.02 71.88 149.77 71.9 149.52 71.9H146.57V72.08H149.62C149.9 72.08 150.16 72.06 150.41 72.01C150.66 71.97 150.91 71.9 151.14 71.82C151.38 71.73 151.59 71.63 151.79 71.51C151.99 71.39 152.17 71.25 152.34 71.1C152.51 70.95 152.65 70.78 152.79 70.59C152.92 70.4 153.03 70.2 153.13 69.97C153.23 69.75 153.3 69.51 153.35 69.26C153.4 69 153.42 68.73 153.42 68.43C153.42 68.13 153.4 67.86 153.35 67.61C153.3 67.36 153.23 67.12 153.13 66.9C153.04 66.68 152.92 66.48 152.79 66.29C152.66 66.1 152.51 65.93 152.34 65.78C152 65.47 151.6 65.23 151.14 65.07C150.9 64.98 150.66 64.92 150.41 64.88C150.16 64.84 149.89 64.82 149.61 64.82H146.56V64.99H149.51C149.76 64.99 150.01 65.01 150.25 65.05C150.49 65.09 150.72 65.15 150.94 65.24C151.16 65.32 151.36 65.43 151.56 65.55C151.75 65.67 151.93 65.81 152.09 65.96C152.25 66.12 152.39 66.29 152.52 66.48C152.64 66.66 152.75 66.87 152.83 67.08C152.91 67.27 152.97 67.49 153.01 67.73ZM146.05 65.89V70.98H149.52C149.73 70.98 149.92 70.96 150.11 70.93C150.29 70.9 150.47 70.85 150.63 70.79C150.8 70.72 150.95 70.65 151.08 70.56C151.22 70.47 151.34 70.37 151.46 70.26C151.57 70.15 151.67 70.03 151.76 69.9C151.85 69.77 151.92 69.63 151.98 69.48C152.04 69.33 152.09 69.16 152.12 68.99C152.15 68.82 152.17 68.63 152.17 68.43C152.17 68.24 152.15 68.06 152.12 67.89C152.09 67.72 152.04 67.56 151.98 67.4C151.92 67.24 151.84 67.1 151.76 66.96C151.68 66.83 151.58 66.71 151.46 66.6C151.34 66.49 151.22 66.39 151.08 66.3C150.94 66.21 150.79 66.14 150.62 66.08C150.45 66.02 150.28 65.97 150.1 65.94C149.92 65.91 149.72 65.89 149.52 65.89H146.05V65.89ZM144.85 77.88H145.14V64.8H144.85V77.88ZM145.59 78.8H143.93V63.89H149.61C149.93 63.89 150.25 63.92 150.56 63.97C150.87 64.02 151.16 64.1 151.45 64.2C152.02 64.4 152.53 64.71 152.96 65.1C153.17 65.3 153.37 65.52 153.53 65.76C153.7 65.99 153.84 66.25 153.96 66.53C154.08 66.81 154.18 67.11 154.24 67.43C154.3 67.75 154.33 68.08 154.33 68.43C154.33 68.78 154.3 69.11 154.24 69.43C154.18 69.75 154.09 70.05 153.96 70.33C153.84 70.61 153.7 70.87 153.53 71.11C153.36 71.35 153.17 71.57 152.95 71.77C152.74 71.96 152.5 72.14 152.25 72.29C152 72.44 151.73 72.57 151.45 72.67C151.24 72.74 151.04 72.8 150.83 72.85L154.91 78.79H152.24L148.39 72.98H146.05V78.79H145.59V78.8ZM140.9 72.72C140.97 72.29 141.01 71.83 141.01 71.36C141.01 70.89 140.97 70.43 140.9 70C140.83 69.56 140.72 69.14 140.58 68.73C140.44 68.32 140.26 67.94 140.06 67.59C139.86 67.24 139.62 66.91 139.36 66.61C139.1 66.31 138.81 66.05 138.49 65.81C138.17 65.57 137.83 65.37 137.46 65.19C137.09 65.02 136.7 64.88 136.28 64.78C136.01 64.72 135.73 64.67 135.44 64.64V64.82C135.71 64.85 135.98 64.9 136.23 64.96C136.62 65.06 136.99 65.19 137.35 65.37C137.7 65.55 138.03 65.75 138.32 65.98C138.62 66.21 138.89 66.48 139.14 66.77C139.39 67.06 139.61 67.38 139.79 67.73C139.98 68.07 140.14 68.44 140.27 68.83C140.4 69.23 140.5 69.64 140.56 70.05C140.62 70.47 140.66 70.91 140.66 71.35C140.66 71.8 140.63 72.23 140.56 72.65C140.5 73.06 140.4 73.47 140.27 73.87C140.14 74.27 139.98 74.63 139.79 74.98C139.6 75.32 139.38 75.65 139.14 75.94C138.89 76.24 138.62 76.51 138.32 76.74C138.02 76.98 137.7 77.18 137.35 77.36C136.77 77.65 136.13 77.83 135.44 77.92V78.08C135.72 78.05 136 78 136.27 77.94C136.69 77.84 137.08 77.7 137.45 77.53C137.82 77.36 138.16 77.15 138.48 76.91C138.8 76.67 139.09 76.41 139.35 76.11C139.61 75.81 139.85 75.48 140.05 75.13C140.25 74.78 140.43 74.4 140.57 73.99C140.72 73.58 140.83 73.16 140.9 72.72ZM134.53 65.66H134.47C134.09 65.67 133.73 65.72 133.39 65.8C133.05 65.88 132.74 65.99 132.44 66.14C132.14 66.29 131.86 66.46 131.6 66.66C131.35 66.85 131.11 67.08 130.9 67.33C130.69 67.58 130.5 67.85 130.34 68.14C130.18 68.43 130.04 68.75 129.93 69.09C129.82 69.43 129.73 69.79 129.68 70.17C129.62 70.55 129.59 70.94 129.59 71.35C129.59 71.76 129.62 72.16 129.68 72.53C129.74 72.91 129.82 73.27 129.93 73.62C130.04 73.96 130.18 74.28 130.34 74.58C130.5 74.88 130.69 75.15 130.9 75.4C131.11 75.65 131.35 75.87 131.6 76.07C131.85 76.27 132.13 76.44 132.43 76.58C132.72 76.72 133.04 76.83 133.38 76.91C133.72 76.99 134.09 77.04 134.47 77.05L134.77 77.06L134.96 77.05C135.69 77.01 136.36 76.84 136.94 76.55C137.23 76.4 137.5 76.23 137.75 76.04C138 75.85 138.22 75.62 138.43 75.37C138.64 75.12 138.82 74.85 138.99 74.55C139.15 74.25 139.29 73.93 139.41 73.59C139.52 73.26 139.61 72.9 139.67 72.52C139.73 72.15 139.76 71.76 139.76 71.35C139.76 70.95 139.73 70.56 139.67 70.18C139.61 69.8 139.53 69.45 139.42 69.11C139.3 68.77 139.16 68.45 139 68.16C138.84 67.87 138.65 67.6 138.45 67.35C138.24 67.11 138.02 66.88 137.77 66.69C137.52 66.49 137.25 66.32 136.96 66.17C136.67 66.03 136.36 65.91 136.03 65.83C135.7 65.75 135.35 65.7 134.98 65.68L134.53 65.66ZM128.44 69.98C128.37 70.42 128.33 70.88 128.33 71.36C128.33 71.84 128.37 72.3 128.44 72.74C128.51 73.18 128.62 73.61 128.76 74.02C128.9 74.43 129.08 74.81 129.29 75.16C129.49 75.51 129.73 75.84 130 76.14C130.27 76.44 130.56 76.71 130.88 76.94C131.2 77.18 131.55 77.38 131.93 77.56C132.31 77.74 132.71 77.87 133.13 77.97C133.41 78.03 133.7 78.08 134.01 78.11V77.94C133.73 77.91 133.45 77.87 133.19 77.81C132.79 77.72 132.41 77.58 132.05 77.41C131.7 77.24 131.36 77.04 131.06 76.8C130.75 76.57 130.47 76.3 130.22 76C129.97 75.7 129.74 75.38 129.55 75.03C129.36 74.68 129.2 74.31 129.07 73.91C128.94 73.51 128.84 73.1 128.78 72.67C128.72 72.24 128.68 71.8 128.68 71.35C128.68 70.9 128.71 70.46 128.78 70.03C128.84 69.61 128.94 69.2 129.07 68.81C129.2 68.42 129.36 68.05 129.55 67.7C129.74 67.35 129.96 67.03 130.22 66.74C130.47 66.44 130.75 66.17 131.06 65.94C131.36 65.7 131.7 65.5 132.05 65.33C132.41 65.15 132.79 65.02 133.19 64.92C133.45 64.86 133.73 64.81 134.01 64.79V64.63C133.71 64.66 133.41 64.7 133.13 64.76C132.71 64.85 132.31 64.99 131.93 65.16C131.18 65.51 130.53 65.99 130 66.58C129.73 66.88 129.5 67.21 129.29 67.56C129.08 67.91 128.91 68.29 128.76 68.7C128.62 69.11 128.51 69.53 128.44 69.98ZM127.42 71.35C127.42 70.83 127.46 70.32 127.54 69.82C127.62 69.33 127.74 68.85 127.9 68.39C128.06 67.93 128.26 67.5 128.5 67.09C128.73 66.69 129.01 66.31 129.31 65.96C129.93 65.27 130.67 64.72 131.54 64.32C131.97 64.12 132.44 63.97 132.92 63.86C133.4 63.75 133.91 63.69 134.44 63.68H134.52V63.66L134.78 63.67H134.91V63.68H135C135.52 63.7 136.01 63.77 136.48 63.88C136.95 63.99 137.4 64.15 137.84 64.35C138.27 64.55 138.67 64.79 139.03 65.06C139.4 65.33 139.73 65.64 140.04 65.99C140.34 66.34 140.61 66.71 140.85 67.12C141.08 67.52 141.28 67.95 141.44 68.41C141.6 68.87 141.72 69.35 141.8 69.84C141.88 70.33 141.92 70.84 141.92 71.35C141.92 71.86 141.88 72.37 141.8 72.86C141.72 73.35 141.6 73.83 141.44 74.29C141.28 74.75 141.08 75.18 140.85 75.59C140.62 75.99 140.35 76.37 140.05 76.71C139.74 77.06 139.41 77.37 139.04 77.64C138.68 77.91 138.28 78.15 137.85 78.35C137.42 78.55 136.96 78.71 136.49 78.82C136.02 78.93 135.53 79 135.01 79.02H134.92V79.03H134.82L134.53 79.04V79.02H134.45C133.92 79.01 133.41 78.95 132.93 78.84C132.44 78.73 131.98 78.57 131.55 78.37C131.12 78.17 130.71 77.93 130.34 77.66C129.97 77.38 129.62 77.07 129.32 76.73C129.01 76.38 128.74 76.01 128.51 75.6C128.28 75.2 128.08 74.77 127.91 74.31C127.75 73.85 127.63 73.37 127.55 72.88C127.46 72.38 127.42 71.87 127.42 71.35ZM114.82 75.98L117.25 67.31L117.17 67.03L114.73 75.7L114.82 75.98ZM122.75 76L122.8 76.17L126.04 64.8H125.65L122.66 75.67L122.75 76ZM118.2 64.8H118.06L121.71 77.88H121.85L118.2 64.8ZM110.29 64.8H109.9L113.65 77.88H113.91L110.29 64.8ZM109.29 63.89H110.98L114.01 74.88L116.97 64.33L116.85 63.89H117.1L117.18 63.59L117.26 63.89H118.88L121.94 74.85L124.95 63.89H127.24L123.01 78.72L123.03 78.8H123L122.82 79.44L122.63 78.8H121.02L118 68L115.04 78.58L115.1 78.79H114.98L114.85 79.26L114.71 78.79H112.96C111.53 73.82 110.11 68.85 108.69 63.88H109.29V63.89ZM107.7 64.98V64.8H104.57V64.97H107.7V64.98ZM103.13 77.88V64.8H102.84V77.88H103.13ZM98.25 64.98H101.4V64.8H98.25V64.98ZM101.86 65.89H97.34V63.89H108.61V65.89H104.04V78.8H101.93V65.89H101.86ZM95.38 77.88V77.71H89.14V77.88H95.38ZM95.24 71.25V71.07H89.15V71.25H95.24ZM95.38 64.98V64.8H89.14V64.97H95.38V64.98ZM87.71 64.8H87.42V77.88H87.71V64.8ZM86.97 63.89H96.3V65.89H88.63V70.16H96.16V72.17H88.63V76.8H96.3V78.8H86.52V63.89H86.97ZM72.65 77.88H72.92V67.41L72.65 67.01V77.88ZM83.08 64.8H82.8V75.52L83.09 75.9V64.8H83.08ZM82.73 77.88L73.36 64.8H72.96L82.2 77.88H82.73ZM73.96 64.08L81.88 75.13V63.89H84V78.08L84.51 78.8H81.73L73.84 67.63V78.8H71.74V64.65L71.2 63.89H73.83L73.96 64.08ZM68.16 72.03V71.93H64.04V72.03H68.16ZM69.08 71.47L69.59 72.94H63.85L63.12 71.01H69.07V71.47H69.08ZM64.35 64.98V64.8H61.22V64.97H64.35V64.98ZM59.78 77.88V64.8H59.49V77.88H59.78ZM54.91 64.98H58.06V64.8H54.91V64.98ZM58.52 65.89H54V63.89H65.27V65.89H60.7V78.8H58.59V65.89H58.52ZM41.5 77.88V72.71H41.24V77.88H41.5ZM51.52 64.8H51.26V77.88H51.52V64.8ZM49.82 71.1H41.5V64.8H41.24V71.27H49.83V71.1H49.82ZM42.41 70.18H50.35V63.89H52.44V78.8H50.35V72.19H42.41V78.8H40.32V63.89H42.41V70.18ZM37.08 76.78C37.29 76.6 37.5 76.41 37.69 76.21L37.46 76.07C37.28 76.28 37.09 76.47 36.88 76.65C36.56 76.92 36.21 77.16 35.82 77.36C35.43 77.56 35.02 77.71 34.6 77.81C34.32 77.88 34.04 77.92 33.74 77.94V78.12C34.09 78.09 34.42 78.04 34.74 77.97C35.19 77.87 35.6 77.71 35.98 77.51C36.37 77.31 36.74 77.06 37.08 76.78ZM27.09 72.66C27.02 72.24 26.98 71.8 26.98 71.35C26.98 70.89 27.02 70.45 27.09 70.03C27.16 69.6 27.27 69.2 27.42 68.81C27.57 68.43 27.74 68.06 27.94 67.73C28.14 67.39 28.37 67.08 28.63 66.78C28.89 66.49 29.17 66.23 29.48 65.99C29.79 65.76 30.11 65.56 30.46 65.39C30.8 65.22 31.17 65.08 31.55 64.98C31.8 64.91 32.05 64.86 32.31 64.82V64.65C32.04 64.69 31.78 64.74 31.53 64.8C31.12 64.9 30.72 65.04 30.35 65.21C29.98 65.38 29.63 65.58 29.3 65.82C28.98 66.05 28.68 66.32 28.41 66.61C28.14 66.91 27.89 67.23 27.68 67.57C27.47 67.92 27.28 68.29 27.12 68.7C26.97 69.1 26.85 69.52 26.77 69.96C26.69 70.4 26.65 70.87 26.65 71.36C26.65 71.85 26.69 72.32 26.77 72.77C26.85 73.21 26.97 73.63 27.12 74.03C27.28 74.43 27.46 74.8 27.68 75.15C27.9 75.5 28.14 75.82 28.41 76.11C28.68 76.4 28.98 76.67 29.31 76.9C29.64 77.14 29.99 77.34 30.36 77.52C30.74 77.7 31.13 77.84 31.53 77.94C31.79 78 32.05 78.05 32.32 78.09V77.9C32.06 77.86 31.81 77.81 31.56 77.74C31.18 77.64 30.81 77.5 30.46 77.32C30.11 77.14 29.78 76.94 29.48 76.7C29.18 76.47 28.9 76.2 28.64 75.91C28.38 75.61 28.15 75.3 27.95 74.96C27.75 74.62 27.58 74.26 27.43 73.88C27.28 73.49 27.16 73.08 27.09 72.66ZM35.82 65.37C36.46 65.7 37 66.12 37.45 66.64L37.68 66.49C37.5 66.29 37.3 66.1 37.09 65.93C36.76 65.65 36.39 65.41 36 65.2C35.62 65 35.19 64.84 34.74 64.74C34.42 64.66 34.08 64.61 33.74 64.59V64.78C34.04 64.81 34.32 64.85 34.6 64.92C35.03 65.02 35.44 65.17 35.82 65.37ZM36.99 67.52C36.58 66.96 36.05 66.52 35.41 66.19C35.09 66.02 34.75 65.9 34.4 65.81C34.04 65.72 33.67 65.68 33.29 65.67H33.09L32.81 65.69C32.46 65.72 32.12 65.78 31.8 65.87C31.48 65.96 31.17 66.07 30.87 66.22C30.57 66.37 30.29 66.54 30.04 66.73C29.78 66.92 29.55 67.14 29.33 67.39C29.11 67.64 28.92 67.91 28.74 68.2C28.57 68.49 28.42 68.81 28.29 69.14C28.16 69.47 28.07 69.82 28.01 70.19C27.95 70.56 27.91 70.95 27.91 71.36C27.91 71.76 27.94 72.15 28.01 72.51C28.07 72.87 28.17 73.22 28.29 73.56C28.42 73.89 28.57 74.21 28.74 74.5C28.91 74.79 29.11 75.06 29.33 75.31C29.55 75.56 29.79 75.78 30.04 75.98C30.3 76.18 30.57 76.35 30.87 76.51C31.16 76.66 31.47 76.78 31.79 76.86C32.11 76.95 32.45 77.01 32.8 77.03L33.06 77.05H33.29C33.67 77.05 34.04 77.01 34.39 76.92C34.75 76.84 35.08 76.71 35.41 76.54C35.73 76.37 36.03 76.17 36.29 75.95C36.55 75.73 36.78 75.47 36.98 75.19L37.23 74.85L39.07 75.98L38.74 76.39C38.4 76.8 38.04 77.17 37.66 77.49C37.27 77.81 36.85 78.09 36.41 78.33C35.96 78.57 35.47 78.75 34.95 78.87C34.44 78.99 33.88 79.05 33.29 79.06H33.22V79.07H32.83V79.05L32.74 79.04C32.24 79.01 31.77 78.94 31.3 78.83C30.84 78.71 30.39 78.55 29.95 78.35C29.52 78.15 29.12 77.91 28.75 77.65C28.38 77.38 28.04 77.08 27.72 76.74C27.41 76.4 27.12 76.03 26.88 75.64C26.64 75.25 26.42 74.82 26.24 74.37C26.06 73.92 25.93 73.44 25.84 72.94C25.75 72.44 25.71 71.92 25.71 71.38C25.71 70.84 25.75 70.32 25.84 69.83C25.93 69.33 26.06 68.85 26.24 68.4C26.42 67.95 26.63 67.52 26.88 67.12C27.13 66.72 27.41 66.35 27.72 66.01C28.03 65.67 28.38 65.37 28.75 65.1C29.12 64.83 29.52 64.6 29.95 64.41C30.38 64.21 30.83 64.05 31.29 63.94C31.75 63.82 32.23 63.75 32.72 63.71L32.82 63.7V63.67H33.12L33.21 63.66V63.67H33.28C33.87 63.68 34.43 63.74 34.94 63.86C35.46 63.98 35.95 64.16 36.41 64.4C36.86 64.64 37.28 64.92 37.66 65.23C38.04 65.55 38.39 65.91 38.71 66.31L39.02 66.7L37.23 67.86L36.99 67.52ZM21.33 74.13L21.24 73.9H16.77L16.68 74.13H21.33ZM24.39 77.88H24.79L19.96 65.9L19.79 66.34L24.39 77.88ZM19 66.84L16.54 72.98H21.45L19 66.84ZM13.21 77.88H13.6L18.84 64.8H18.56L13.21 77.88ZM13.91 78.8H11.85L17.95 63.89H19.77L19.95 63.43L20.14 63.89H20.19L20.16 63.96L26.14 78.8H23.78L22.28 75.04H15.73L14.23 78.8H13.91ZM12.33 64.8H12L7.91 70.79L8.05 70.99L12.33 64.8ZM2.07 64.8H1.74L6.88 72.21V77.88H7.18V72.27L2.07 64.8ZM0.87 63.89H2.55L7.03 70.44L11.51 63.89H14.07L8.1 72.52V78.8H5.97V72.5L0 63.89H0.87Z" fill="white"/>
</g>
<defs>
<clipPath id="clip0_330_2">
<rect width="205.22" height="79.44" fill="white"/>
</clipPath>
</defs>
</svg>
