<svg width="165" height="71" viewBox="0 0 165 71" fill="none" xmlns="http://www.w3.org/2000/svg">
<path d="M52.2988 36H57.1152V26.4199L66.5371 10.4062H61.7031L55.7793 20.584C55.6035 20.877 55.4512 21.1582 55.3223 21.4277C55.2051 21.6855 55.082 21.9609 54.9531 22.2539H54.8477C54.7188 21.9609 54.5898 21.6855 54.4609 21.4277C54.332 21.1582 54.1797 20.877 54.0039 20.584L48.1152 10.4062H42.8066L52.2988 26.4902V36ZM65.1836 36H69.877L76.7324 17.3848C76.8965 16.9395 77.0312 16.5352 77.1367 16.1719C77.2422 15.8086 77.3477 15.4512 77.4531 15.0996H77.5586C77.6641 15.4512 77.7695 15.8086 77.875 16.1719C77.9805 16.5352 78.1152 16.9395 78.2793 17.3848L85.1875 36H90.25L80.2305 10.3184H75.2031L65.1836 36ZM70.0879 29.9707H85.1348L83.9922 26.5078H71.2305L70.0879 29.9707ZM91.1465 23.8008C91.1465 28.0312 92.248 31.2012 94.4512 33.3105C96.666 35.4199 99.584 36.4746 103.205 36.4746C106.697 36.4746 109.363 35.6895 111.203 34.1191C113.055 32.5371 114.062 30.416 114.227 27.7559L114.244 27.0176H109.498L109.48 27.668C109.352 29.3203 108.795 30.6035 107.811 31.5176C106.826 32.4316 105.314 32.8887 103.275 32.8887C101.096 32.8887 99.3613 32.1855 98.0723 30.7793C96.7949 29.3613 96.1562 27.2227 96.1562 24.3633V22.043C96.1562 19.1484 96.7891 17.0098 98.0547 15.627C99.332 14.2441 101.061 13.5527 103.24 13.5527C105.256 13.5527 106.773 13.998 107.793 14.8887C108.812 15.7676 109.375 17.0273 109.48 18.668L109.498 19.4238H114.244L114.227 18.7734C114.086 15.9727 113.061 13.7988 111.15 12.252C109.252 10.7051 106.604 9.93164 103.205 9.93164C99.6543 9.93164 96.7539 10.9805 94.5039 13.0781C92.2656 15.1641 91.1465 18.3398 91.1465 22.6055V23.8008ZM117.883 36H122.664V24.7324H134.459V36H139.258V10.4062H134.459V20.8477H122.664V10.4062H117.883V36ZM142.123 14.2031H150.49V36H155.307V14.2031H163.674V10.4062H142.123V14.2031Z" fill="white"/>
<path d="M42.8672 51H43.9805V46.6113C44.1367 46.3105 44.3516 46.0645 44.625 45.873C44.8984 45.6816 45.2148 45.5859 45.5742 45.5859C45.9922 45.5859 46.3145 45.6953 46.541 45.9141C46.7715 46.1328 46.8867 46.4941 46.8867 46.998V51H48.0059V47.0098C48.0059 46.1582 47.8145 45.5527 47.4316 45.1934C47.0527 44.8301 46.5449 44.6484 45.9082 44.6484C45.502 44.6484 45.1328 44.7305 44.8008 44.8945C44.4688 45.0547 44.1875 45.2812 43.957 45.5742H43.9219L43.875 44.7656H42.8672V51ZM51.9584 47.9766C51.9584 48.918 52.2201 49.6875 52.7435 50.2852C53.267 50.8789 54.0209 51.1758 55.0052 51.1758C55.6068 51.1758 56.1166 51.0488 56.5345 50.7949C56.9564 50.541 57.267 50.2676 57.4662 49.9746L56.7455 49.3945C56.5658 49.6289 56.3314 49.832 56.0423 50.0039C55.7533 50.1758 55.4076 50.2617 55.0052 50.2617C54.3529 50.2617 53.8705 50.041 53.558 49.5996C53.2494 49.1582 53.0951 48.6172 53.0951 47.9766V47.7891C53.0951 47.1484 53.2416 46.6074 53.5345 46.166C53.8314 45.7246 54.2709 45.5039 54.8529 45.5039C55.3724 45.5039 55.7591 45.6641 56.013 45.9844C56.267 46.3047 56.3939 46.6992 56.3939 47.168V47.2559H52.6439V48.1406H57.5189V47.6836C57.5189 46.7344 57.2845 45.9824 56.8158 45.4277C56.3509 44.8691 55.6869 44.5898 54.8236 44.5898C53.9603 44.5898 53.267 44.8887 52.7435 45.4863C52.2201 46.0801 51.9584 46.8477 51.9584 47.7891V47.9766ZM60.6277 45.6211H64.237V44.7656H60.6277V45.6211ZM61.7585 49.4531C61.7585 50.0469 61.8952 50.4824 62.1687 50.7598C62.4421 51.0371 62.8093 51.1758 63.2702 51.1758C63.4695 51.1758 63.6511 51.1582 63.8152 51.123C63.9831 51.0879 64.1198 51.0469 64.2253 51V50.0859C64.112 50.125 64.0007 50.1562 63.8913 50.1797C63.7859 50.2031 63.6784 50.2148 63.5691 50.2148C63.3269 50.2148 63.1491 50.1562 63.0359 50.0391C62.9265 49.9219 62.8718 49.7266 62.8718 49.4531V43.3125H61.7585V45.1055V45.2812V49.4531ZM67.3165 44.7656L69.2559 51H70.1524L71.5235 46.9453C71.5743 46.7891 71.6231 46.6328 71.67 46.4766C71.7169 46.3203 71.7598 46.1641 71.7989 46.0078H71.8341C71.8731 46.1641 71.9161 46.3203 71.963 46.4766C72.0098 46.6328 72.0587 46.7891 72.1095 46.9453L73.4805 51H74.3712L76.3106 44.7656H75.2911L74.1602 48.832C74.1173 48.9883 74.0802 49.125 74.0489 49.2422C74.0216 49.3594 73.9942 49.4961 73.9669 49.6523H73.9317C73.9044 49.4961 73.8751 49.3594 73.8438 49.2422C73.8165 49.125 73.7755 48.9883 73.7208 48.832L72.3263 44.7656H71.3712L70.0059 48.832C69.9513 48.9883 69.9083 49.125 69.877 49.2422C69.8497 49.3594 69.8223 49.4961 69.795 49.6523H69.7598C69.7325 49.4961 69.7032 49.3594 69.672 49.2422C69.6407 49.125 69.6016 48.9883 69.5548 48.832L68.4005 44.7656H67.3165ZM79.601 47.9766C79.601 48.918 79.8725 49.6875 80.4155 50.2852C80.9584 50.8789 81.683 51.1758 82.5893 51.1758C83.4955 51.1758 84.2202 50.8789 84.7631 50.2852C85.3061 49.6875 85.5776 48.918 85.5776 47.9766V47.7891C85.5776 46.8477 85.3061 46.0801 84.7631 45.4863C84.2202 44.8887 83.4955 44.5898 82.5893 44.5898C81.683 44.5898 80.9584 44.8887 80.4155 45.4863C79.8725 46.0801 79.601 46.8477 79.601 47.7891V47.9766ZM80.7377 47.7891C80.7377 47.1484 80.892 46.6074 81.2006 46.166C81.5131 45.7246 81.976 45.5039 82.5893 45.5039C83.2026 45.5039 83.6635 45.7246 83.9721 46.166C84.2807 46.6074 84.435 47.1484 84.435 47.7891V47.9766C84.435 48.6133 84.2807 49.1523 83.9721 49.5938C83.6635 50.0352 83.2026 50.2559 82.5893 50.2559C81.976 50.2559 81.5131 50.0352 81.2006 49.5938C80.892 49.1523 80.7377 48.6133 80.7377 47.9766V47.7891ZM89.5828 51H90.6961V46.6348C90.8172 46.3613 91.0047 46.1309 91.2586 45.9434C91.5125 45.7559 91.8211 45.6621 92.1844 45.6621C92.2898 45.6621 92.3855 45.666 92.4715 45.6738C92.5613 45.6816 92.6453 45.6934 92.7234 45.709V44.6719C92.6844 44.6562 92.616 44.6387 92.5184 44.6191C92.4246 44.5996 92.3348 44.5898 92.2488 44.5898C91.8855 44.5898 91.5711 44.6875 91.3055 44.8828C91.0438 45.0781 90.8328 45.3066 90.6727 45.5684H90.6375L90.5906 44.7656H89.5828V51ZM96.4064 51H97.5197V48.9023L101.486 44.7656H100.203L97.5197 47.6191V42H96.4064V51ZM100.479 51H101.797L98.715 46.9863L98.006 47.7539L100.479 51ZM104.724 47.9766C104.724 48.918 104.986 49.6875 105.509 50.2852C106.033 50.8789 106.787 51.1758 107.771 51.1758C108.373 51.1758 108.882 51.0488 109.3 50.7949C109.722 50.541 110.033 50.2676 110.232 49.9746L109.511 49.3945C109.332 49.6289 109.097 49.832 108.808 50.0039C108.519 50.1758 108.173 50.2617 107.771 50.2617C107.119 50.2617 106.636 50.041 106.324 49.5996C106.015 49.1582 105.861 48.6172 105.861 47.9766V47.7891C105.861 47.1484 106.007 46.6074 106.3 46.166C106.597 45.7246 107.037 45.5039 107.619 45.5039C108.138 45.5039 108.525 45.6641 108.779 45.9844C109.033 46.3047 109.16 46.6992 109.16 47.168V47.2559H105.41V48.1406H110.285V47.6836C110.285 46.7344 110.05 45.9824 109.582 45.4277C109.117 44.8691 108.453 44.5898 107.589 44.5898C106.726 44.5898 106.033 44.8887 105.509 45.4863C104.986 46.0801 104.724 46.8477 104.724 47.7891V47.9766ZM114.261 51H115.374V46.6348C115.495 46.3613 115.683 46.1309 115.936 45.9434C116.19 45.7559 116.499 45.6621 116.862 45.6621C116.968 45.6621 117.063 45.666 117.149 45.6738C117.239 45.6816 117.323 45.6934 117.401 45.709V44.6719C117.362 44.6562 117.294 44.6387 117.196 44.6191C117.102 44.5996 117.013 44.5898 116.927 44.5898C116.563 44.5898 116.249 44.6875 115.983 44.8828C115.722 45.0781 115.511 45.3066 115.35 45.5684H115.315L115.268 44.7656H114.261V51ZM120.686 49.166V49.1953C120.686 49.793 120.906 50.2734 121.348 50.6367C121.789 50.9961 122.432 51.1758 123.276 51.1758C124.119 51.1758 124.752 50.998 125.174 50.6426C125.6 50.2871 125.813 49.832 125.813 49.2773C125.813 48.7266 125.627 48.3008 125.256 48C124.889 47.6992 124.36 47.4727 123.668 47.3203C122.981 47.168 122.524 47.0234 122.297 46.8867C122.074 46.7461 121.963 46.5566 121.963 46.3184C121.963 46.084 122.065 45.8887 122.268 45.7324C122.471 45.5723 122.795 45.4922 123.24 45.4922C123.686 45.4922 124.014 45.5781 124.225 45.75C124.436 45.9219 124.541 46.1582 124.541 46.459V46.5059H125.649V46.4766C125.649 45.9023 125.428 45.4453 124.987 45.1055C124.549 44.7617 123.967 44.5898 123.24 44.5898C122.514 44.5898 121.936 44.7598 121.506 45.0996C121.076 45.4395 120.862 45.8652 120.862 46.377C120.862 46.8926 121.055 47.2969 121.442 47.5898C121.832 47.8789 122.373 48.0996 123.065 48.252C123.752 48.4043 124.198 48.5547 124.401 48.7031C124.604 48.8516 124.705 49.0645 124.705 49.3418C124.705 49.6152 124.578 49.8398 124.324 50.0156C124.071 50.1875 123.721 50.2734 123.276 50.2734C122.834 50.2734 122.477 50.1836 122.203 50.0039C121.934 49.8203 121.799 49.5508 121.799 49.1953V49.166H120.686ZM129.865 50.3789C129.865 50.5859 129.931 50.7637 130.064 50.9121C130.197 51.0566 130.388 51.1289 130.638 51.1289C130.892 51.1289 131.086 51.0566 131.218 50.9121C131.351 50.7637 131.418 50.5859 131.418 50.3789C131.418 50.1719 131.351 49.9961 131.218 49.8516C131.086 49.7031 130.892 49.6289 130.638 49.6289C130.388 49.6289 130.197 49.7031 130.064 49.8516C129.931 49.9961 129.865 50.1719 129.865 50.3789ZM135.417 47.9766C135.417 48.918 135.677 49.6875 136.196 50.2852C136.716 50.8789 137.433 51.1758 138.347 51.1758C139.19 51.1758 139.831 50.9531 140.269 50.5078C140.706 50.0586 140.925 49.5566 140.925 49.002V48.9727H139.847V49.002C139.847 49.334 139.728 49.627 139.489 49.8809C139.251 50.1348 138.87 50.2617 138.347 50.2617C137.733 50.2617 137.28 50.041 136.987 49.5996C136.698 49.1582 136.554 48.6172 136.554 47.9766V47.7891C136.554 47.1484 136.698 46.6074 136.987 46.166C137.28 45.7246 137.733 45.5039 138.347 45.5039C138.87 45.5039 139.251 45.6309 139.489 45.8848C139.728 46.1387 139.847 46.4297 139.847 46.7578V46.7871H140.925V46.7578C140.925 46.207 140.706 45.709 140.269 45.2637C139.831 44.8145 139.19 44.5898 138.347 44.5898C137.433 44.5898 136.716 44.8887 136.196 45.4863C135.677 46.0801 135.417 46.8477 135.417 47.7891V47.9766ZM144.479 47.9766C144.479 48.918 144.75 49.6875 145.293 50.2852C145.836 50.8789 146.561 51.1758 147.467 51.1758C148.373 51.1758 149.098 50.8789 149.641 50.2852C150.184 49.6875 150.455 48.918 150.455 47.9766V47.7891C150.455 46.8477 150.184 46.0801 149.641 45.4863C149.098 44.8887 148.373 44.5898 147.467 44.5898C146.561 44.5898 145.836 44.8887 145.293 45.4863C144.75 46.0801 144.479 46.8477 144.479 47.7891V47.9766ZM145.616 47.7891C145.616 47.1484 145.77 46.6074 146.078 46.166C146.391 45.7246 146.854 45.5039 147.467 45.5039C148.08 45.5039 148.541 45.7246 148.85 46.166C149.159 46.6074 149.313 47.1484 149.313 47.7891V47.9766C149.313 48.6133 149.159 49.1523 148.85 49.5938C148.541 50.0352 148.08 50.2559 147.467 50.2559C146.854 50.2559 146.391 50.0352 146.078 49.5938C145.77 49.1523 145.616 48.6133 145.616 47.9766V47.7891ZM154.461 51H155.574V46.6113C155.73 46.3105 155.937 46.0645 156.195 45.873C156.457 45.6816 156.761 45.5859 157.109 45.5859C157.507 45.5859 157.816 45.6953 158.035 45.9141C158.254 46.1328 158.363 46.4941 158.363 46.998V51H159.482V46.6113C159.634 46.3105 159.84 46.0645 160.097 45.873C160.359 45.6816 160.664 45.5859 161.011 45.5859C161.414 45.5859 161.724 45.6953 161.943 45.9141C162.162 46.1328 162.271 46.4941 162.271 46.998V51H163.384V47.0098C163.384 46.1582 163.199 45.5527 162.828 45.1934C162.457 44.8301 161.943 44.6484 161.287 44.6484C160.869 44.6484 160.496 44.7324 160.168 44.9004C159.843 45.0645 159.549 45.332 159.283 45.7031H159.248C159.088 45.332 158.853 45.0645 158.545 44.9004C158.236 44.7324 157.869 44.6484 157.443 44.6484C157.049 44.6484 156.691 44.7305 156.371 44.8945C156.05 45.0586 155.777 45.2852 155.55 45.5742H155.515L155.468 44.7656H154.461V51Z" fill="white"/>
<path d="M16.3458 2.50133C14.6793 2.91633 13.5899 4.24563 13.4991 5.97696C13.4343 7.25438 13.752 8.03251 14.7441 9.0311C15.1008 9.39422 15.4898 9.72493 15.6066 9.7768L15.8141 9.86758V10.3993V10.9245L15.5741 10.9634C15.438 10.9894 14.5561 10.9764 13.6029 10.944C11.7289 10.8791 11.0416 10.9181 10.4645 11.1385C9.79657 11.3849 9.52422 11.7481 9.52422 12.3965C9.52422 13.0644 9.98461 13.6415 10.6914 13.862C11.087 13.9916 11.2556 13.9981 13.4732 13.9916C15.3407 13.9852 15.8465 13.9981 15.8919 14.063C15.9178 14.1084 15.9438 14.6336 15.9438 15.2302V16.3195H15.7038C15.1138 16.326 14.2513 16.6373 13.8104 17.0004C13.564 17.2144 13.5445 17.1366 13.7845 16.8902C14.0503 16.6178 13.9271 16.553 13.3565 16.6697C12.8637 16.7734 12.3838 17.0004 12.092 17.2727C11.9364 17.4154 11.904 17.4219 11.8391 17.3311C11.7743 17.2468 11.7095 17.2403 11.476 17.2987C11.0805 17.3895 10.8795 17.5062 10.6071 17.8045C10.3413 18.1027 10.1597 18.4334 10.0365 18.8484L9.95219 19.1402L9.92625 18.9133C9.91329 18.7901 9.88086 18.6604 9.85493 18.6345C9.75766 18.5307 9.26485 19.1791 9.1611 19.5552C9.05735 19.9054 9.05735 20.703 9.16758 21.0207C9.20649 21.1374 9.2 21.1374 9.13516 21.0337C9.03789 20.8781 8.89524 20.8975 8.83688 21.0661C8.81743 21.1439 8.79149 21.4292 8.79797 21.7016C8.79797 22.2073 8.97954 22.8428 9.16758 22.9984C9.27782 23.0892 9.29727 23.2189 9.19352 23.1541C9.05735 23.0698 9.01844 23.2773 9.11571 23.608C9.25836 24.0943 9.37508 24.2823 9.77063 24.7038C9.97164 24.9113 10.1402 25.1253 10.1467 25.1772C10.1921 25.482 10.9897 26.4092 11.3982 26.6297C11.4825 26.6686 11.5279 26.7399 11.5149 26.7853C11.476 26.8826 11.7873 27.2846 12.0856 27.5375C12.1893 27.6283 12.332 27.7645 12.3968 27.8423C12.4681 27.9201 12.5978 28.0173 12.6951 28.0563C12.7923 28.0952 12.922 28.2313 12.9934 28.3545C13.1944 28.7241 14.3227 29.7033 14.3227 29.5023C14.3227 29.4763 14.3875 29.5477 14.4718 29.6514C14.5496 29.7552 14.8544 30.0729 15.1527 30.3517C15.7816 30.9548 15.7557 30.7927 15.5547 32.7769C15.3407 34.8713 14.997 36.7323 14.6858 37.4716C14.5237 37.8541 13.6613 38.3599 12.7794 38.5998C12.2282 38.7425 11.2231 38.7231 10.6266 38.5609C8.9536 38.0876 7.07313 36.4924 6.23016 34.8324C6.06805 34.5017 5.73086 33.542 5.6725 33.2373C5.6336 33.0103 5.6336 33.0038 5.80868 33.0298C5.91243 33.0492 6.26907 33.153 6.60625 33.2567C7.0861 33.4123 7.37141 33.4577 7.89016 33.4772C8.29219 33.4902 8.55157 33.4707 8.55157 33.4318C8.55157 33.3086 3.36407 27.0188 3.26032 27.0188C3.22141 27.0188 3.05282 27.4078 2.87774 27.8747C2.70915 28.3481 2.12555 29.9043 1.58086 31.3309C1.03618 32.7574 0.523911 34.1062 0.446098 34.3331C0.258051 34.8454 0.316411 34.9362 0.705473 34.7352C0.854614 34.6573 1.03618 34.586 1.10102 34.5731C1.16586 34.5601 1.43172 34.4045 1.6911 34.2294C2.27469 33.8338 2.43032 33.756 2.69618 33.6977C2.89719 33.6458 2.91016 33.6588 3.01391 33.9506C4.0125 36.7194 5.06297 38.3988 6.98235 40.2923C8.49321 41.7837 9.74469 42.6785 11.7613 43.7031C12.5978 44.131 12.8961 44.4098 13.0193 44.8832C13.1231 45.2982 13.3306 45.6548 13.7261 46.0958C13.9012 46.2838 14.0309 46.4784 14.0179 46.5238C13.966 46.6729 14.3097 47.1527 14.8025 47.6261C15.0748 47.8855 15.2953 48.1319 15.2953 48.1773C15.2953 48.3134 15.6714 48.8452 15.8465 48.9619C15.9308 49.0202 16.067 49.137 16.1513 49.2277C16.2356 49.312 16.4301 49.4288 16.5857 49.4871C16.7413 49.539 17.0396 49.74 17.2536 49.941C17.4611 50.1356 17.7075 50.3171 17.7918 50.3366C17.8826 50.356 17.9409 50.4014 17.9215 50.4273C17.8696 50.5181 18.1484 50.583 18.6023 50.5895C18.8358 50.5959 19.0692 50.6154 19.1211 50.6348C19.2832 50.7062 20.1651 50.8813 20.3337 50.8813C20.5477 50.8813 20.9302 50.6738 21.1572 50.4338C21.3258 50.2588 21.3647 50.2458 21.449 50.3236C21.5398 50.4079 21.5981 50.4014 21.9094 50.2912C22.3633 50.1291 22.6551 49.8891 22.9793 49.4093C23.1284 49.1888 23.2776 49.0332 23.323 49.0527C23.4721 49.0981 23.7834 48.9295 24.0233 48.6636C24.2697 48.3913 24.4707 47.9827 24.542 47.6066C24.5615 47.4834 24.6069 47.3991 24.6458 47.4186C24.7625 47.4899 25.1451 47.1138 25.3202 46.7572C25.4563 46.4719 25.5082 46.2644 25.5277 45.8559C25.5536 45.3695 25.5666 45.3306 25.6963 45.3306C26.014 45.3436 26.2215 44.4034 26.0399 43.7484C25.9881 43.5539 25.9232 43.3464 25.8973 43.2816C25.8648 43.2038 25.8908 43.1778 25.9751 43.1843C26.0788 43.1973 26.0918 43.1389 26.0788 42.5813L26.0723 41.9652L26.429 41.6734C27.0774 41.1547 28.6855 39.5206 29.2367 38.8203C30.3326 37.4391 31.2923 35.7532 31.7916 34.3137C32.1223 33.354 32.0769 33.4188 32.3103 33.4642C32.4206 33.4902 32.8226 33.7171 33.2116 33.97C33.5942 34.2229 33.9249 34.4109 33.9444 34.3915C33.9638 34.372 34.113 34.4109 34.2751 34.4823C34.6252 34.6314 34.7484 34.6379 34.7484 34.5082C34.7484 34.4563 34.5539 33.9506 34.3205 33.3864C33.7952 32.1414 33.3802 31.0974 32.5113 28.776C32.1417 27.7969 31.8175 26.9798 31.7851 26.9474C31.7138 26.8761 31.6684 26.915 31.1431 27.5051C30.0084 28.789 28.8152 30.2804 27.473 32.0701C26.3966 33.5031 26.3836 33.5485 27.0126 33.3994C27.272 33.341 27.3952 33.3345 27.4276 33.3799C27.4535 33.4253 27.7194 33.3799 28.2187 33.2502C29.107 33.0103 29.1719 33.0103 29.1719 33.1789C29.1719 33.5096 28.4391 35.0659 27.9204 35.8375C27.2525 36.8231 25.8778 38.0292 25.0089 38.3923L24.7755 38.4961L24.6069 38.2108C24.4513 37.9449 24.0687 37.5494 23.8158 37.4002C23.7185 37.3484 23.712 37.3224 23.7834 37.2706C23.9909 37.1344 23.3165 36.1682 22.7783 35.831C22.6421 35.7532 22.5773 35.6689 22.6032 35.6106C22.6551 35.4679 22.3309 34.9621 22.0196 34.7157C21.8705 34.5925 21.6046 34.4174 21.4231 34.3266C21.248 34.2359 21.1507 34.1581 21.2156 34.1516C21.3906 34.1516 21.3452 34.0024 21.047 33.5874C20.7357 33.1659 20.4958 32.952 20.1391 32.7574C19.9965 32.6861 19.8733 32.5564 19.8344 32.4462C19.802 32.3424 19.6917 32.1544 19.588 32.0247C19.4842 31.895 19.3805 31.7264 19.361 31.6551C19.2832 31.4022 19.1211 27.9071 19.0238 24.5547C18.972 22.6807 18.9071 20.502 18.8877 19.7173L18.8423 18.2778L19.2184 18.1416C19.4194 18.0638 19.6723 17.9601 19.7695 17.9082C19.8733 17.8563 19.9706 17.8369 19.99 17.8693C20.0095 17.9017 20.1975 17.9406 20.3985 17.9666C20.606 17.986 20.8848 18.0249 21.021 18.0444C21.1896 18.0703 21.3841 18.0444 21.637 17.9601C21.8381 17.8888 22.1817 17.8239 22.3957 17.8174C22.6097 17.8109 22.9015 17.798 23.0506 17.785C23.3295 17.7656 23.9195 17.4608 23.9195 17.3376C23.9195 17.2922 23.952 17.3116 23.9909 17.3765C24.0557 17.4802 24.1141 17.4932 24.4577 17.4478C24.6782 17.4219 24.9246 17.4024 25.0089 17.4089C25.2164 17.4219 25.3915 17.3246 25.7092 17.0198C25.9362 16.7994 26.027 16.7605 26.2928 16.7475C26.7013 16.7216 26.9607 16.5854 27.2525 16.2417C27.4859 15.9694 27.7388 15.3145 27.7518 14.9643C27.7518 14.8022 27.7518 14.8022 27.8102 14.9384C27.888 15.1394 27.9658 15.1264 28.1344 14.8995C28.5299 14.3353 28.5688 13.4988 28.2252 12.6559C28.1798 12.5391 28.1863 12.5391 28.2835 12.6105C28.5364 12.818 28.5948 12.4419 28.4197 11.761C28.303 11.3006 28.1409 10.9699 27.9074 10.6846C27.8037 10.5679 27.7713 10.4966 27.8361 10.5225C28.0177 10.5938 28.063 10.4966 27.9788 10.1723C27.8555 9.70547 27.6351 9.25805 27.3887 8.95329C27.2525 8.78469 27.1747 8.64204 27.2006 8.57719C27.272 8.38914 27.0191 7.76664 26.7532 7.46188C26.6106 7.29977 26.3577 7.09875 26.1826 7.00797C25.9362 6.88477 25.8648 6.81344 25.8648 6.69672C25.8648 6.43735 25.5925 6.11961 25.2034 5.9186C24.9116 5.77594 24.7106 5.73055 24.2632 5.69813C23.7963 5.67219 23.725 5.65274 23.8741 5.60735C24.1076 5.52305 24.0946 5.42579 23.8223 5.24422C23.4591 5.01078 22.8626 4.88758 22.3568 4.93297C21.9677 4.97188 21.9223 4.96539 21.9353 4.86164C21.9418 4.76438 21.8575 4.73844 21.4101 4.6736C21.1118 4.64117 20.8654 4.59578 20.8524 4.57633C20.8395 4.56336 20.7552 4.40774 20.6709 4.22618C20.2883 3.44157 19.3221 2.69586 18.4013 2.4754C17.8502 2.34571 16.9359 2.35868 16.3458 2.50133ZM18.2522 5.03024C18.6866 5.23774 18.8163 5.4193 18.8941 5.9575C18.9979 6.65782 18.5116 7.46836 17.8696 7.6629C17.299 7.83149 16.8451 7.76016 16.3393 7.41C15.9567 7.14415 15.7881 6.78102 15.7881 6.23633C15.7946 5.68516 15.9308 5.35446 16.242 5.17289C16.8905 4.79032 17.6297 4.73196 18.2522 5.03024ZM21.9418 6.69024C22.1558 6.76157 22.3633 6.85235 22.4087 6.89125C22.4541 6.93665 22.7005 6.98852 22.9598 7.01446C23.4656 7.06633 24.2502 7.37758 24.4966 7.62399C24.5745 7.7018 24.6652 7.76016 24.7041 7.76016C24.7431 7.76016 24.7625 7.80555 24.7366 7.85743C24.7041 7.95469 25.1256 8.50586 25.5601 8.92086C25.7741 9.12188 25.787 9.14782 25.6833 9.22563C25.5795 9.30344 25.586 9.33587 25.7741 9.71844C25.8908 9.9454 26.1242 10.3215 26.2993 10.5549C26.5781 10.9181 26.5976 10.9764 26.4873 10.9764C26.3706 10.9699 26.3512 11.0023 26.3641 11.2488C26.3706 11.3979 26.4809 11.761 26.6106 12.0593C26.7402 12.3511 26.8634 12.6299 26.8829 12.6818C26.9088 12.7402 26.8959 12.7596 26.8505 12.7272C26.7273 12.6494 26.643 12.9736 26.643 13.5313C26.643 13.9138 26.617 14.0695 26.5457 14.1278C26.3058 14.3288 26.215 14.4261 25.8843 14.8735C25.5795 15.2756 25.5147 15.3274 25.4369 15.2496C25.2683 15.081 24.782 15.3209 23.8417 16.0407C23.6342 16.1963 23.4656 16.3195 23.4656 16.3066C23.4656 16.2936 23.537 16.1834 23.6277 16.0602C23.8547 15.7489 23.7704 15.6776 23.2581 15.7489C22.9209 15.8008 22.5384 15.924 21.9937 16.1704C21.9483 16.1898 21.9094 16.1574 21.9094 16.1056C21.9094 15.8656 20.9108 15.924 20.2948 16.1963C20.0354 16.3066 19.9965 16.313 19.9511 16.2223C19.9057 16.1509 19.7695 16.125 19.3805 16.125H18.8617V15.0227V13.9203L21.1507 13.9333C24.0557 13.9463 24.2438 13.9138 24.8338 13.2913C25.7287 12.3576 25.2553 11.1969 23.8677 10.931C23.3359 10.8273 22.4411 10.8208 20.3726 10.8986L18.7969 10.957V10.6003C18.7969 9.97782 18.8358 9.88704 19.2313 9.64063C19.7241 9.32938 20.418 8.57071 20.6903 8.03899C20.9173 7.60453 20.9886 7.41 21.1313 6.8718C21.222 6.49571 21.3063 6.48274 21.9418 6.69024ZM14.1022 18.1935C14.0244 18.3167 14.2448 18.3816 14.7766 18.401C15.0813 18.4075 15.4704 18.3881 15.6455 18.3491L15.9632 18.2778L15.9178 23.0568C15.8984 25.683 15.8595 28.0044 15.84 28.2248C15.8011 28.6009 15.7946 28.6204 15.6455 28.588C15.4963 28.562 15.425 28.4453 15.5547 28.4453C15.6909 28.4453 15.6131 28.2573 15.3537 27.9655C15.1721 27.7645 14.9257 27.5894 14.5885 27.4208C14.2902 27.2781 14.0957 27.1484 14.1152 27.0966C14.1865 26.8761 13.5705 26.2277 13.0323 25.9488C12.8118 25.8386 12.7145 25.7543 12.7405 25.6959C12.8248 25.469 12.2606 24.8141 11.7159 24.4963C11.4955 24.3731 11.4306 24.2953 11.476 24.2499C11.5668 24.1591 11.3593 23.7571 10.9702 23.2773C10.6979 22.9466 10.672 22.8752 10.6849 22.6159C10.6914 22.3565 10.5682 21.5913 10.458 21.2217C10.432 21.1569 10.445 21.118 10.4774 21.1374C10.5941 21.2088 10.6655 21.0791 10.8341 20.502L11.0091 19.9119L11.7873 19.1402C12.2088 18.7123 12.5135 18.4399 12.4616 18.5307C12.4033 18.628 12.3773 18.7512 12.3968 18.816C12.4487 18.9392 12.5524 18.9198 13.0906 18.6734C13.2852 18.5891 13.4991 18.5048 13.5705 18.4853C13.6353 18.4723 13.7845 18.3881 13.8947 18.3038C14.1152 18.1287 14.1541 18.1027 14.1022 18.1935ZM20.1327 35.3836C20.2494 35.5457 20.5412 35.8634 20.7811 36.0969C21.0405 36.3433 21.2804 36.6481 21.3582 36.8102C21.4295 36.9723 21.7019 37.3224 21.9613 37.5948C22.2141 37.8671 22.4281 38.1395 22.4281 38.2043C22.4281 38.2691 22.4865 38.4118 22.5578 38.5285L22.6875 38.736L22.3438 38.6777C20.9497 38.4313 19.9511 37.1927 19.789 35.5003C19.7436 34.9621 19.8214 34.9362 20.1327 35.3836ZM24.2567 44.2218C24.2697 44.6887 24.2567 45.0064 24.2243 44.9481C24.1984 44.8962 24.1465 44.8508 24.1141 44.8508C23.9973 44.8508 23.7963 45.3501 23.6796 45.9142C23.5694 46.4524 23.5629 46.4719 23.3813 46.4719C23.2711 46.4719 23.1868 46.5173 23.1609 46.5821C23.1349 46.647 23.0441 46.8026 22.9534 46.9323C22.8626 47.0555 22.7005 47.3408 22.5967 47.5613C22.4476 47.8725 22.3892 47.9438 22.3179 47.892C22.2725 47.8531 22.1623 47.8401 22.065 47.8595C21.864 47.9114 21.3128 48.4172 21.1248 48.722C21.0016 48.9165 20.9821 48.9295 20.9108 48.8322C20.833 48.7349 20.7811 48.7349 20.1845 48.8906C19.3934 49.0981 19.1924 49.1434 19.3027 49.0916C19.4388 49.0267 19.387 48.8776 19.1989 48.7803C19.0433 48.696 18.6672 48.5923 18.0706 48.4561C17.9669 48.4302 17.8891 48.3718 17.8891 48.3134C17.8891 48.1513 17.3184 47.6002 16.9488 47.3991C16.7154 47.2824 16.6052 47.1852 16.6246 47.1268C16.6959 46.9323 16.1123 46.206 15.5417 45.791C15.3861 45.6743 15.3731 45.6484 15.4574 45.5446C15.5417 45.4279 15.5936 45.4473 16.4366 45.8818C17.0266 46.1866 17.4027 46.3422 17.5454 46.3422C17.6945 46.3422 18.0123 46.206 18.5245 45.9207C18.9395 45.6938 20.204 45.0842 21.3258 44.5655C22.4476 44.0532 23.5564 43.5409 23.7898 43.4307C24.0752 43.2945 24.2178 43.2556 24.2243 43.3075C24.2308 43.3529 24.2502 43.7614 24.2567 44.2218Z" fill="white"/>
</svg>
