<svg width="49" height="69" viewBox="0 0 49 69" fill="none" xmlns="http://www.w3.org/2000/svg">
<path d="M22.873 0.67057C20.5238 1.25557 18.9882 3.12939 18.8602 5.56994C18.7688 7.37064 19.2167 8.46752 20.6152 9.87518C21.118 10.3871 21.6664 10.8532 21.8309 10.9263L22.1234 11.0543V11.8038V12.5442L21.7852 12.5991C21.5933 12.6356 20.3501 12.6174 19.0065 12.5717C16.3648 12.4803 15.3959 12.5351 14.5824 12.8459C13.6409 13.1932 13.257 13.7051 13.257 14.6192C13.257 15.5606 13.906 16.3742 14.9023 16.6849C15.4599 16.8678 15.6976 16.8769 18.8237 16.8678C21.4562 16.8586 22.1691 16.8769 22.2331 16.9683C22.2697 17.0323 22.3062 17.7727 22.3062 18.6136V20.1492H21.968C21.1362 20.1584 19.9205 20.5971 19.299 21.109C18.9516 21.4106 18.9242 21.301 19.2624 20.9536C19.6372 20.5697 19.4635 20.4783 18.6591 20.6428C17.9644 20.7891 17.288 21.109 16.8767 21.4929C16.6573 21.694 16.6116 21.7031 16.5202 21.5752C16.4288 21.4563 16.3374 21.4472 16.0083 21.5295C15.4508 21.6574 15.1674 21.822 14.7835 22.2424C14.4087 22.6629 14.1528 23.1291 13.9791 23.7141L13.8603 24.1254L13.8237 23.8055C13.8055 23.6318 13.7598 23.449 13.7232 23.4124C13.5861 23.2662 12.8914 24.1803 12.7451 24.7104C12.5989 25.204 12.5989 26.3283 12.7543 26.7762C12.8091 26.9407 12.8 26.9407 12.7086 26.7945C12.5715 26.5751 12.3704 26.6025 12.2881 26.8402C12.2607 26.9499 12.2241 27.3521 12.2333 27.736C12.2333 28.4489 12.4892 29.3447 12.7543 29.5641C12.9097 29.6921 12.9371 29.8749 12.7908 29.7835C12.5989 29.6646 12.5441 29.9571 12.6812 30.4233C12.8823 31.1088 13.0468 31.3739 13.6044 31.9681C13.8877 32.2606 14.1254 32.5622 14.1345 32.6353C14.1985 33.0649 15.3228 34.3721 15.8987 34.6828C16.0175 34.7377 16.0815 34.8382 16.0632 34.9022C16.0083 35.0393 16.4471 35.606 16.8676 35.9625C17.0138 36.0905 17.2149 36.2824 17.3063 36.3921C17.4069 36.5018 17.5897 36.6389 17.7268 36.6938C17.8639 36.7486 18.0467 36.9406 18.1473 37.1142C18.4306 37.6353 20.0211 39.0155 20.0211 38.7321C20.0211 38.6956 20.1125 38.7961 20.2313 38.9424C20.341 39.0886 20.7706 39.5365 21.1911 39.9296C22.0777 40.7796 22.0412 40.5511 21.7578 43.3481C21.4562 46.3006 20.9717 48.9239 20.533 49.966C20.3044 50.5053 19.0887 51.2182 17.8456 51.5564C17.0687 51.7575 15.6519 51.7301 14.8109 51.5016C12.4526 50.8343 9.80186 48.5857 8.61358 46.2457C8.38507 45.7796 7.90976 44.4267 7.82749 43.9971C7.77265 43.6772 7.77265 43.6681 8.01944 43.7046C8.16569 43.7321 8.66843 43.8783 9.14374 44.0246C9.82015 44.2439 10.2223 44.3079 10.9536 44.3353C11.5203 44.3536 11.8859 44.3262 11.8859 44.2714C11.8859 44.0977 4.57343 35.2313 4.42718 35.2313C4.37233 35.2313 4.13468 35.7797 3.88788 36.4378C3.65022 37.1051 2.82757 39.2989 2.05976 41.3098C1.29194 43.3207 0.569834 45.222 0.460147 45.5419C0.195068 46.264 0.277334 46.392 0.825772 46.1086C1.03601 45.9989 1.29194 45.8984 1.38335 45.8801C1.47476 45.8618 1.84952 45.6424 2.21515 45.3956C3.0378 44.8381 3.25718 44.7284 3.63194 44.6461C3.9153 44.573 3.93358 44.5913 4.07983 45.0026C5.48749 48.9056 6.96827 51.2731 9.6739 53.9421C11.8037 56.0445 13.5678 57.3059 16.4105 58.7501C17.5897 59.3534 18.0101 59.7464 18.1838 60.4137C18.3301 60.9987 18.6226 61.5014 19.1801 62.123C19.4269 62.3881 19.6098 62.6623 19.5915 62.7263C19.5184 62.9365 20.0028 63.6129 20.6975 64.2802C21.0814 64.6458 21.3922 64.9931 21.3922 65.0571C21.3922 65.2491 21.9223 65.9986 22.1691 66.1631C22.288 66.2454 22.4799 66.4099 22.5987 66.5379C22.7176 66.6567 22.9918 66.8213 23.2112 66.9035C23.4305 66.9767 23.851 67.26 24.1526 67.5434C24.4451 67.8176 24.7925 68.0735 24.9113 68.101C25.0393 68.1284 25.1216 68.1924 25.0941 68.2289C25.021 68.3569 25.4141 68.4483 26.0539 68.4574C26.383 68.4666 26.712 68.494 26.7851 68.5214C27.0137 68.622 28.2568 68.8688 28.4944 68.8688C28.7961 68.8688 29.3354 68.5763 29.6553 68.2381C29.893 67.9913 29.9478 67.973 30.0666 68.0827C30.1946 68.2015 30.2769 68.1924 30.7156 68.037C31.3555 67.8085 31.7668 67.4703 32.2238 66.7939C32.4341 66.4831 32.6443 66.2637 32.7083 66.2911C32.9185 66.3551 33.3573 66.1174 33.6955 65.7427C34.0428 65.3588 34.3262 64.7829 34.4267 64.2528C34.4541 64.0791 34.5181 63.9603 34.573 63.9877C34.7375 64.0882 35.2768 63.5581 35.5236 63.0553C35.7155 62.6531 35.7887 62.3606 35.8161 61.7848C35.8526 61.0992 35.8709 61.0444 36.0537 61.0444C36.5016 61.0627 36.7941 59.7373 36.5382 58.8141C36.4651 58.5399 36.3737 58.2474 36.3371 58.156C36.2914 58.0463 36.328 58.0097 36.4468 58.0189C36.593 58.0371 36.6113 57.9549 36.593 57.1688L36.5839 56.3004L37.0866 55.8891C38.0007 55.1578 40.2676 52.8544 41.0445 51.8672C42.5893 49.9203 43.9421 47.5437 44.6459 45.5145C45.1121 44.1617 45.0481 44.2531 45.3772 44.3171C45.5326 44.3536 46.0993 44.6735 46.6477 45.03C47.187 45.3865 47.6532 45.6516 47.6806 45.6242C47.708 45.5967 47.9183 45.6516 48.1468 45.7521C48.6404 45.9624 48.814 45.9715 48.814 45.7887C48.814 45.7156 48.5398 45.0026 48.2108 44.2074C47.4704 42.4524 46.8854 40.9807 45.6605 37.7084C45.1395 36.3281 44.6825 35.1764 44.6368 35.1307C44.5362 35.0302 44.4723 35.085 43.7319 35.9168C42.1323 37.7267 40.4504 39.829 38.5583 42.3518C37.0409 44.3719 37.0226 44.4359 37.9093 44.2256C38.2749 44.1434 38.4486 44.1342 38.4943 44.1982C38.5308 44.2622 38.9056 44.1982 39.6094 44.0154C40.8617 43.6772 40.9531 43.6772 40.9531 43.9149C40.9531 44.381 39.9202 46.5748 39.189 47.6625C38.2475 49.0519 36.3097 50.7521 35.0848 51.2639L34.7558 51.4102L34.5181 51.008C34.2987 50.6332 33.7594 50.0756 33.403 49.8654C33.2659 49.7923 33.2567 49.7557 33.3573 49.6826C33.6498 49.4906 32.6991 48.1287 31.9405 47.6534C31.7485 47.5437 31.6571 47.4249 31.6937 47.3426C31.7668 47.1415 31.3098 46.4285 30.871 46.0812C30.6608 45.9075 30.286 45.6607 30.0301 45.5328C29.7833 45.4048 29.6462 45.2951 29.7376 45.286C29.9844 45.286 29.9204 45.0757 29.4999 44.4907C29.0612 43.8966 28.723 43.5949 28.2202 43.3207C28.0191 43.2202 27.8455 43.0374 27.7906 42.882C27.7449 42.7357 27.5895 42.4706 27.4433 42.2878C27.297 42.105 27.1508 41.8674 27.1234 41.7668C27.0137 41.4103 26.7851 36.4835 26.648 31.7578C26.5749 29.1162 26.4835 26.0449 26.4561 24.9389L26.3921 22.9097L26.9223 22.7178C27.2056 22.6081 27.5621 22.4618 27.6992 22.3887C27.8455 22.3156 27.9826 22.2881 28.01 22.3339C28.0374 22.3796 28.3025 22.4344 28.5858 22.471C28.8783 22.4984 29.2714 22.5532 29.4634 22.5806C29.701 22.6172 29.9752 22.5806 30.3317 22.4618C30.6151 22.3613 31.0995 22.2699 31.4012 22.2607C31.7028 22.2516 32.1141 22.2333 32.3244 22.215C32.7174 22.1876 33.5492 21.758 33.5492 21.5843C33.5492 21.5203 33.5949 21.5478 33.6498 21.6392C33.7412 21.7854 33.8234 21.8037 34.3079 21.7397C34.6187 21.7031 34.966 21.6757 35.0848 21.6849C35.3773 21.7031 35.6241 21.566 36.072 21.1364C36.3919 20.8256 36.5199 20.7708 36.8947 20.7525C37.4705 20.716 37.8362 20.524 38.2475 20.0396C38.5765 19.6556 38.933 18.7324 38.9513 18.2388C38.9513 18.0103 38.9513 18.0103 39.0336 18.2023C39.1433 18.4856 39.253 18.4674 39.4906 18.1474C40.0482 17.3522 40.103 16.1731 39.6186 14.9848C39.5546 14.8203 39.5637 14.8203 39.7008 14.9208C40.0573 15.2133 40.1396 14.6831 39.8928 13.7234C39.7283 13.0744 39.4998 12.6082 39.1707 12.206C39.0244 12.0415 38.9787 11.941 39.0701 11.9775C39.3261 12.0781 39.3901 11.941 39.2712 11.4839C39.0976 10.8258 38.7868 10.1951 38.4394 9.76549C38.2475 9.52783 38.1378 9.32674 38.1744 9.23533C38.2749 8.97025 37.9184 8.09275 37.5437 7.66315C37.3426 7.43463 36.9861 7.15127 36.7393 7.0233C36.3919 6.84963 36.2914 6.74908 36.2914 6.58455C36.2914 6.21893 35.9075 5.77103 35.3591 5.48767C34.9477 5.28658 34.6644 5.2226 34.0337 5.1769C33.3755 5.14033 33.275 5.11291 33.4852 5.04893C33.8143 4.9301 33.796 4.79299 33.4121 4.53705C32.9002 4.20799 32.0593 4.03432 31.3463 4.0983C30.7979 4.15314 30.7339 4.144 30.7522 3.99776C30.7613 3.86064 30.6425 3.82408 30.0118 3.73267C29.5913 3.68697 29.244 3.62299 29.2257 3.59557C29.2074 3.57729 29.0886 3.35791 28.9698 3.10197C28.4305 1.99596 27.0685 0.944786 25.7705 0.634003C24.9936 0.451195 23.7048 0.469475 22.873 0.67057ZM25.5603 4.23541C26.1727 4.52791 26.3555 4.78385 26.4652 5.54252C26.6115 6.52971 25.9259 7.67229 25.021 7.94651C24.2166 8.18416 23.5768 8.08361 22.8638 7.59002C22.3245 7.21526 22.0869 6.70338 22.0869 5.93557C22.096 5.15862 22.288 4.69244 22.7267 4.43651C23.6408 3.89721 24.6828 3.81494 25.5603 4.23541ZM30.7613 6.57541C31.063 6.67596 31.3555 6.80393 31.4194 6.85877C31.4834 6.92276 31.8308 6.99588 32.1964 7.03244C32.9094 7.10557 34.0154 7.54432 34.3627 7.89166C34.4724 8.00135 34.6004 8.08361 34.6552 8.08361C34.7101 8.08361 34.7375 8.1476 34.7009 8.22072C34.6552 8.35783 35.2494 9.13478 35.8618 9.71979C36.1634 10.0031 36.1817 10.0397 36.0355 10.1494C35.8892 10.2591 35.8983 10.3048 36.1634 10.8441C36.328 11.164 36.657 11.6942 36.9038 12.0232C37.2969 12.5351 37.3243 12.6174 37.1689 12.6174C37.0044 12.6082 36.9769 12.6539 36.9952 13.0013C37.0044 13.2115 37.1598 13.7234 37.3426 14.1438C37.5254 14.5552 37.6991 14.9482 37.7265 15.0214C37.763 15.1036 37.7448 15.131 37.6808 15.0853C37.5071 14.9756 37.3883 15.4327 37.3883 16.2188C37.3883 16.7581 37.3517 16.9774 37.2512 17.0597C36.913 17.3431 36.785 17.4802 36.3188 18.1109C35.8892 18.6776 35.7978 18.7507 35.6881 18.641C35.4505 18.4034 34.7649 18.7416 33.4395 19.7562C33.147 19.9756 32.9094 20.1492 32.9094 20.131C32.9094 20.1127 33.0099 19.9573 33.1379 19.7836C33.4578 19.3449 33.339 19.2443 32.6169 19.3449C32.1416 19.418 31.6023 19.5917 30.8344 19.939C30.7705 19.9664 30.7156 19.9207 30.7156 19.8476C30.7156 19.5094 29.308 19.5917 28.4396 19.9756C28.074 20.131 28.0191 20.1401 27.9551 20.0121C27.8912 19.9116 27.6992 19.875 27.1508 19.875H26.4195V18.3211V16.7672L29.6462 16.7855C33.7412 16.8038 34.0062 16.7581 34.838 15.8806C36.0994 14.5643 35.4322 12.9281 33.4761 12.5534C32.7266 12.4071 31.4651 12.398 28.5493 12.5077L26.3281 12.5899V12.0872C26.3281 11.2097 26.383 11.0817 26.9405 10.7344C27.6352 10.2956 28.6133 9.22619 28.9972 8.47666C29.3171 7.86424 29.4176 7.59002 29.6187 6.83135C29.7467 6.30119 29.8655 6.28291 30.7613 6.57541ZM19.7103 22.7909C19.6006 22.9646 19.9114 23.056 20.6609 23.0834C21.0905 23.0925 21.639 23.0651 21.8858 23.0103L22.3337 22.9097L22.2697 29.6464C22.2423 33.3483 22.1874 36.6206 22.16 36.9314C22.1051 37.4616 22.096 37.489 21.8858 37.4433C21.6755 37.4067 21.575 37.2422 21.7578 37.2422C21.9498 37.2422 21.8401 36.9771 21.4744 36.5658C21.2185 36.2824 20.8712 36.0356 20.3958 35.798C19.9754 35.5969 19.7012 35.4141 19.7286 35.341C19.8291 35.0302 18.9608 34.1161 18.2021 33.7231C17.8913 33.5677 17.7542 33.4488 17.7908 33.3666C17.9096 33.0467 17.1144 32.1235 16.3466 31.6756C16.0358 31.5019 15.9444 31.3922 16.0083 31.3282C16.1363 31.2003 15.8438 30.6335 15.2954 29.9571C14.9115 29.491 14.8749 29.3904 14.8932 29.0248C14.9023 28.6592 14.7287 27.5806 14.5733 27.0596C14.5367 26.9681 14.555 26.9133 14.6007 26.9407C14.7652 27.0413 14.8658 26.8585 15.1034 26.0449L15.3502 25.2131L16.4471 24.1254C17.0412 23.5221 17.4708 23.1382 17.3977 23.2662C17.3155 23.4033 17.2789 23.577 17.3063 23.6684C17.3794 23.8421 17.5257 23.8146 18.2844 23.4673C18.5586 23.3485 18.8602 23.2296 18.9608 23.2022C19.0522 23.1839 19.2624 23.0651 19.4178 22.9463C19.7286 22.6995 19.7834 22.6629 19.7103 22.7909ZM28.2111 47.0227C28.3756 47.2512 28.7869 47.6991 29.1251 48.0281C29.4908 48.3755 29.829 48.8051 29.9387 49.0336C30.0392 49.2621 30.4231 49.7557 30.7887 50.1396C31.1452 50.5235 31.4469 50.9074 31.4469 50.9989C31.4469 51.0903 31.5291 51.2914 31.6297 51.4559L31.8125 51.7484L31.328 51.6661C29.3628 51.3188 27.9551 49.5729 27.7266 47.1872C27.6626 46.4285 27.7723 46.392 28.2111 47.0227ZM34.0245 59.4814C34.0428 60.1395 34.0245 60.5874 33.9788 60.5051C33.9423 60.432 33.8691 60.368 33.8234 60.368C33.6589 60.368 33.3755 61.0718 33.211 61.8671C33.0556 62.6257 33.0465 62.6531 32.7905 62.6531C32.6351 62.6531 32.5163 62.7171 32.4798 62.8085C32.4432 62.8999 32.3152 63.1193 32.1873 63.3021C32.0593 63.4758 31.8308 63.878 31.6845 64.1888C31.4743 64.6275 31.392 64.7281 31.2915 64.6549C31.2275 64.6001 31.0721 64.5818 30.935 64.6092C30.6516 64.6824 29.8747 65.3953 29.6096 65.8249C29.4359 66.0992 29.4085 66.1174 29.308 65.9803C29.1983 65.8432 29.1251 65.8432 28.2842 66.0626C27.1691 66.3551 26.8857 66.4191 27.0411 66.346C27.233 66.2546 27.1599 66.0443 26.8948 65.9072C26.6755 65.7884 26.1453 65.6421 25.3044 65.4502C25.1581 65.4136 25.0484 65.3314 25.0484 65.2491C25.0484 65.0206 24.2441 64.2436 23.723 63.9603C23.394 63.7957 23.2386 63.6586 23.266 63.5764C23.3666 63.3021 22.5439 62.2784 21.7395 61.6934C21.5201 61.5289 21.5019 61.4923 21.6207 61.346C21.7395 61.1815 21.8126 61.2089 23.0009 61.8214C23.8327 62.251 24.3629 62.4703 24.564 62.4703C24.7742 62.4703 25.2221 62.2784 25.9442 61.8762C26.5292 61.5563 28.3116 60.6971 29.893 59.9658C31.4743 59.2437 33.0373 58.5216 33.3664 58.3662C33.7686 58.1742 33.9697 58.1194 33.9788 58.1925C33.988 58.2565 34.0154 58.8324 34.0245 59.4814Z" fill="white"/>
</svg>
