<svg width="10" height="20" viewBox="0 0 10 20" fill="none" xmlns="http://www.w3.org/2000/svg">
<path fill-rule="evenodd" clip-rule="evenodd" d="M0.209794 19.774C0.143292 19.7026 0.0905311 19.6177 0.0545311 19.5243C0.0185311 19.4308 0 19.3307 0 19.2295C0 19.1283 0.0185311 19.0281 0.0545311 18.9347C0.0905311 18.8413 0.143292 18.7564 0.209794 18.6849L8.27488 9.9998L0.209794 1.31466C0.0757045 1.17024 0.000374794 0.974358 0.000374794 0.770111C0.000374794 0.565865 0.0757045 0.369985 0.209794 0.225561C0.343884 0.0811371 0.525748 0 0.71538 0C0.905011 0 1.08687 0.0811371 1.22096 0.225561L9.79021 9.45525C9.85671 9.52669 9.90947 9.61157 9.94547 9.70501C9.98147 9.79846 10 9.89863 10 9.9998C10 10.101 9.98147 10.2011 9.94547 10.2946C9.90947 10.388 9.85671 10.4729 9.79021 10.5443L1.22096 19.774C1.15463 19.8457 1.07583 19.9025 0.989072 19.9413C0.902315 19.98 0.809309 20 0.71538 20C0.62145 20 0.528444 19.98 0.441688 19.9413C0.354931 19.9025 0.276128 19.8457 0.209794 19.774V19.774Z" fill="#E5F3FF"/>
</svg>
