<svg width="10" height="20" viewBox="0 0 10 20" fill="none" xmlns="http://www.w3.org/2000/svg">
<path fill-rule="evenodd" clip-rule="evenodd" d="M9.79021 0.225964C9.85671 0.297411 9.90947 0.382286 9.94547 0.475729C9.98147 0.569172 10 0.669347 10 0.770516C10 0.871684 9.98147 0.971859 9.94547 1.0653C9.90947 1.15875 9.85671 1.24362 9.79021 1.31507L1.72512 10.0002L9.79021 18.6853C9.9243 18.8298 9.99963 19.0256 9.99963 19.2299C9.99963 19.4341 9.9243 19.63 9.79021 19.7744C9.65612 19.9189 9.47425 20 9.28462 20C9.09499 20 8.91313 19.9189 8.77904 19.7744L0.209794 10.5448C0.143292 10.4733 0.0905301 10.3884 0.0545301 10.295C0.0185301 10.2015 0 10.1014 0 10.0002C0 9.89903 0.0185301 9.79886 0.0545301 9.70542C0.0905301 9.61197 0.143292 9.5271 0.209794 9.45565L8.77904 0.225964C8.84537 0.154337 8.92417 0.0975082 9.01093 0.0587336C9.09768 0.019959 9.19069 0 9.28462 0C9.37855 0 9.47156 0.019959 9.55831 0.0587336C9.64507 0.0975082 9.72387 0.154337 9.79021 0.225964Z" fill="#9FAEBB"/>
</svg>
