<svg width="218" height="83" viewBox="0 0 218 83" fill="none" xmlns="http://www.w3.org/2000/svg">
<path d="M69.375 45H75.8203V32.1562L88.4062 10.875H81.9609L73.9922 24.4453C73.7734 24.8359 73.5859 25.1953 73.4297 25.5234C73.2734 25.8516 73.1094 26.2109 72.9375 26.6016H72.7969C72.625 26.2109 72.4531 25.8516 72.2812 25.5234C72.125 25.1953 71.9375 24.8359 71.7188 24.4453L63.7734 10.875H56.6953L69.375 32.2266V45ZM86.5078 45H92.8359L101.953 20.0625C102.156 19.4844 102.328 18.9688 102.469 18.5156C102.609 18.0469 102.75 17.5859 102.891 17.1328H103.008C103.148 17.5859 103.289 18.0469 103.43 18.5156C103.57 18.9688 103.75 19.4844 103.969 20.0625L113.156 45H119.906L106.594 10.7812H99.8203L86.5078 45ZM93 36.9375H113.18L111.656 32.3672H94.5L93 36.9375ZM120.914 28.7109C120.914 34.3672 122.383 38.6016 125.32 41.4141C128.273 44.2109 132.195 45.6094 137.086 45.6094C141.773 45.6094 145.352 44.5703 147.82 42.4922C150.289 40.4141 151.633 37.5938 151.852 34.0312L151.875 32.9297H145.57L145.547 33.8906C145.359 36.1562 144.602 37.8906 143.273 39.0938C141.945 40.2969 139.914 40.8984 137.18 40.8984C134.258 40.8984 131.93 39.9531 130.195 38.0625C128.461 36.1719 127.594 33.3203 127.594 29.5078V26.3672C127.594 22.5078 128.445 19.6562 130.148 17.8125C131.852 15.9531 134.18 15.0234 137.133 15.0234C139.852 15.0234 141.891 15.6172 143.25 16.8047C144.609 17.9922 145.367 19.6797 145.523 21.8672L145.547 22.9922H151.875L151.852 22.0312C151.648 18.2812 150.273 15.3828 147.727 13.3359C145.195 11.2891 141.648 10.2656 137.086 10.2656C132.305 10.2656 128.414 11.6562 125.414 14.4375C122.414 17.2031 120.914 21.4531 120.914 27.1875V28.7109ZM156.586 45H162.984V30H178.617V45H184.992V10.875H178.617V24.75H162.984V10.875H156.586V45ZM188.812 15.9609H199.969V45H206.414V15.9609H217.57V10.875H188.812V15.9609Z" fill="white"/>
<path d="M90.0327 64H91.7979V58.939C92.0371 58.5239 92.3569 58.1895 92.7573 57.9355C93.1626 57.6816 93.6265 57.5547 94.1489 57.5547C94.7739 57.5547 95.2524 57.7036 95.5845 58.0015C95.9214 58.2944 96.0898 58.7827 96.0898 59.4663V64H97.8696V59.4956C97.8696 58.2798 97.584 57.4204 97.0127 56.9175C96.4463 56.4097 95.6919 56.1558 94.7495 56.1558C94.1196 56.1558 93.5508 56.2681 93.043 56.4927C92.54 56.7124 92.1152 57.0371 91.7686 57.4668H91.7466L91.688 56.3096H90.0327V64ZM99.415 60.2646C99.415 61.4414 99.813 62.396 100.609 63.1284C101.405 63.856 102.528 64.2197 103.978 64.2197C104.881 64.2197 105.655 64.0635 106.3 63.751C106.949 63.4385 107.416 63.0771 107.699 62.667L106.512 61.7808C106.239 62.0884 105.89 62.3447 105.465 62.5498C105.045 62.7549 104.544 62.8574 103.963 62.8574C102.992 62.8574 102.276 62.6279 101.817 62.1689C101.363 61.71 101.136 61.0923 101.136 60.3159V59.9863C101.136 59.2051 101.354 58.585 101.788 58.126C102.228 57.6621 102.877 57.4302 103.736 57.4302C104.581 57.4302 105.179 57.6011 105.531 57.9429C105.882 58.2847 106.058 58.751 106.058 59.3418V59.3784H100.506V60.5576H107.816V59.9058C107.816 58.7241 107.459 57.7939 106.747 57.1152C106.039 56.4316 105.038 56.0898 103.744 56.0898C102.455 56.0898 101.41 56.4561 100.609 57.1885C99.813 57.916 99.415 58.8657 99.415 60.0376V60.2646ZM108.424 57.6206H113.844V56.3096H108.424V57.6206ZM110.05 61.8979C110.05 62.6987 110.265 63.2871 110.694 63.6631C111.129 64.0342 111.703 64.2197 112.416 64.2197C112.704 64.2197 112.967 64.1953 113.207 64.1465C113.451 64.1025 113.644 64.0513 113.785 63.9927L113.778 62.667C113.626 62.7109 113.475 62.7476 113.324 62.7769C113.172 62.8062 113.014 62.8208 112.848 62.8208C112.501 62.8208 112.24 62.75 112.064 62.6084C111.893 62.4668 111.808 62.2227 111.808 61.876V54.3979H110.05V56.8076V57.0273V61.8979ZM114.349 56.3096L117.081 64H118.788L120.677 59.2173C120.75 59.0317 120.814 58.8438 120.868 58.6533C120.926 58.458 120.985 58.2676 121.043 58.082H121.08C121.134 58.2676 121.192 58.4556 121.256 58.646C121.319 58.8364 121.388 59.0269 121.461 59.2173L123.351 64H125.028L127.767 56.3096H126.09L124.515 61.1143C124.452 61.3096 124.4 61.5122 124.361 61.7222C124.322 61.9272 124.286 62.125 124.251 62.3154H124.208C124.173 62.125 124.125 61.9272 124.061 61.7222C124.002 61.5122 123.937 61.3096 123.863 61.1143L122.01 56.3096H120.26L118.392 61.1143C118.319 61.3047 118.255 61.5049 118.202 61.7148C118.153 61.9199 118.111 62.1177 118.077 62.3081H118.033C117.999 62.1177 117.953 61.9199 117.894 61.7148C117.84 61.5098 117.782 61.3096 117.718 61.1143L116.151 56.3096H114.349ZM128.492 60.2646C128.492 61.4512 128.902 62.4082 129.723 63.1357C130.548 63.8584 131.639 64.2197 132.997 64.2197C134.349 64.2197 135.436 63.8584 136.256 63.1357C137.081 62.4082 137.494 61.4512 137.494 60.2646V60.0376C137.494 58.856 137.081 57.9038 136.256 57.1812C135.436 56.4536 134.349 56.0898 132.997 56.0898C131.639 56.0898 130.548 56.4536 129.723 57.1812C128.902 57.9038 128.492 58.856 128.492 60.0376V60.2646ZM130.294 59.9863C130.294 59.2197 130.523 58.6094 130.982 58.1553C131.446 57.6963 132.118 57.4668 132.997 57.4668C133.871 57.4668 134.537 57.6963 134.996 58.1553C135.46 58.6094 135.692 59.2197 135.692 59.9863V60.3159C135.692 61.0825 135.46 61.6953 134.996 62.1543C134.537 62.6133 133.871 62.8428 132.997 62.8428C132.118 62.8428 131.446 62.6133 130.982 62.1543C130.523 61.6953 130.294 61.0825 130.294 60.3159V59.9863ZM139.12 64H140.892V58.9756C141.083 58.6045 141.375 58.2969 141.771 58.0527C142.171 57.8037 142.64 57.6792 143.177 57.6792C143.329 57.6792 143.465 57.6841 143.587 57.6938C143.709 57.7036 143.827 57.7207 143.939 57.7451V56.207C143.88 56.1875 143.783 56.1655 143.646 56.1411C143.514 56.1167 143.382 56.1045 143.25 56.1045C142.728 56.1045 142.257 56.2363 141.837 56.5C141.417 56.7588 141.09 57.0762 140.855 57.4521H140.819L140.768 56.3096H139.12V64ZM145.169 64H146.935V61.4365L152.977 56.3096H150.685L146.935 59.5688V52.7793H145.169V64ZM151.168 64H153.38L148.802 58.8657L147.601 59.9717L151.168 64ZM153.644 60.2646C153.644 61.4414 154.042 62.396 154.837 63.1284C155.633 63.856 156.756 64.2197 158.207 64.2197C159.11 64.2197 159.884 64.0635 160.528 63.751C161.178 63.4385 161.644 63.0771 161.927 62.667L160.741 61.7808C160.467 62.0884 160.118 62.3447 159.693 62.5498C159.273 62.7549 158.773 62.8574 158.192 62.8574C157.22 62.8574 156.505 62.6279 156.046 62.1689C155.592 61.71 155.365 61.0923 155.365 60.3159V59.9863C155.365 59.2051 155.582 58.585 156.017 58.126C156.456 57.6621 157.105 57.4302 157.965 57.4302C158.81 57.4302 159.408 57.6011 159.759 57.9429C160.111 58.2847 160.287 58.751 160.287 59.3418V59.3784H154.735V60.5576H162.044V59.9058C162.044 58.7241 161.688 57.7939 160.975 57.1152C160.267 56.4316 159.266 56.0898 157.972 56.0898C156.683 56.0898 155.638 56.4561 154.837 57.1885C154.042 57.916 153.644 58.8657 153.644 60.0376V60.2646ZM163.685 64H165.458V58.9756C165.648 58.6045 165.941 58.2969 166.336 58.0527C166.737 57.8037 167.206 57.6792 167.743 57.6792C167.894 57.6792 168.031 57.6841 168.153 57.6938C168.275 57.7036 168.392 57.7207 168.504 57.7451V56.207C168.446 56.1875 168.348 56.1655 168.211 56.1411C168.08 56.1167 167.948 56.1045 167.816 56.1045C167.293 56.1045 166.822 56.2363 166.402 56.5C165.982 56.7588 165.655 57.0762 165.421 57.4521H165.384L165.333 56.3096H163.685V64ZM169.222 61.6343V61.7148C169.222 62.4912 169.559 63.104 170.233 63.5532C170.912 63.9976 171.888 64.2197 173.163 64.2197C174.447 64.2197 175.423 63.9976 176.092 63.5532C176.761 63.104 177.096 62.5156 177.096 61.7881C177.096 61.1143 176.834 60.5967 176.312 60.2354C175.79 59.874 174.952 59.603 173.8 59.4224C172.726 59.2466 172.025 59.0781 171.698 58.917C171.371 58.751 171.207 58.5361 171.207 58.2725C171.207 57.9746 171.356 57.75 171.654 57.5986C171.957 57.4424 172.44 57.3618 173.104 57.3569C173.807 57.3521 174.317 57.4497 174.635 57.6499C174.952 57.8501 175.111 58.1284 175.111 58.4849V58.624H176.854V58.4995C176.854 57.772 176.517 57.1885 175.843 56.749C175.174 56.3047 174.264 56.0825 173.111 56.0825C171.998 56.0874 171.112 56.3022 170.453 56.7271C169.793 57.147 169.464 57.6987 169.464 58.3823C169.464 59.022 169.735 59.5225 170.277 59.8838C170.819 60.2402 171.639 60.5063 172.738 60.6821C173.856 60.8579 174.566 61.0288 174.869 61.1948C175.172 61.3608 175.323 61.5977 175.323 61.9053C175.323 62.2422 175.13 62.4961 174.745 62.667C174.364 62.8379 173.834 62.9233 173.155 62.9233C172.496 62.9233 171.966 62.8257 171.566 62.6304C171.17 62.4302 170.973 62.1299 170.973 61.7295V61.6416L169.222 61.6343ZM178.7 63.0625C178.7 63.3652 178.8 63.624 179 63.8389C179.2 64.0537 179.488 64.1611 179.864 64.1611C180.245 64.1611 180.536 64.0537 180.736 63.8389C180.936 63.624 181.036 63.3652 181.036 63.0625C181.036 62.7598 180.936 62.501 180.736 62.2861C180.536 62.0713 180.245 61.9639 179.864 61.9639C179.488 61.9639 179.2 62.0713 179 62.2861C178.8 62.501 178.7 62.7598 178.7 63.0625ZM182.779 60.2646C182.779 61.4512 183.175 62.4082 183.966 63.1357C184.762 63.8584 185.841 64.2197 187.203 64.2197C188.478 64.2197 189.449 63.939 190.118 63.3774C190.792 62.811 191.129 62.1665 191.129 61.4438V61.3853H189.349V61.4438C189.349 61.8784 189.183 62.2251 188.851 62.4839C188.519 62.7378 187.967 62.8647 187.196 62.8647C186.297 62.8647 185.636 62.6353 185.211 62.1763C184.791 61.7124 184.581 61.0923 184.581 60.3159V59.9863C184.581 59.21 184.791 58.5923 185.211 58.1333C185.636 57.6743 186.297 57.4448 187.196 57.4448C187.967 57.4448 188.517 57.5742 188.844 57.833C189.176 58.0869 189.344 58.4312 189.349 58.8657V58.9243H191.136L191.129 58.8438C191.109 58.1211 190.768 57.4814 190.104 56.9248C189.444 56.3682 188.478 56.0898 187.203 56.0898C185.841 56.0898 184.762 56.4512 183.966 57.1738C183.175 57.8965 182.779 58.8511 182.779 60.0376V60.2646ZM192.184 60.2646C192.184 61.4512 192.594 62.4082 193.414 63.1357C194.239 63.8584 195.331 64.2197 196.688 64.2197C198.041 64.2197 199.127 63.8584 199.947 63.1357C200.772 62.4082 201.185 61.4512 201.185 60.2646V60.0376C201.185 58.856 200.772 57.9038 199.947 57.1812C199.127 56.4536 198.041 56.0898 196.688 56.0898C195.331 56.0898 194.239 56.4536 193.414 57.1812C192.594 57.9038 192.184 58.856 192.184 60.0376V60.2646ZM193.985 59.9863C193.985 59.2197 194.215 58.6094 194.674 58.1553C195.138 57.6963 195.809 57.4668 196.688 57.4668C197.562 57.4668 198.229 57.6963 198.688 58.1553C199.151 58.6094 199.383 59.2197 199.383 59.9863V60.3159C199.383 61.0825 199.151 61.6953 198.688 62.1543C198.229 62.6133 197.562 62.8428 196.688 62.8428C195.809 62.8428 195.138 62.6133 194.674 62.1543C194.215 61.6953 193.985 61.0825 193.985 60.3159V59.9863ZM202.811 64H204.576V58.939C204.815 58.5288 205.123 58.1968 205.499 57.9429C205.88 57.6841 206.329 57.5547 206.847 57.5547C207.452 57.5547 207.916 57.7085 208.238 58.0161C208.565 58.3188 208.731 58.8145 208.736 59.5029V64H210.509V58.939C210.748 58.5288 211.056 58.1968 211.432 57.9429C211.812 57.6841 212.262 57.5547 212.779 57.5547C213.39 57.5547 213.856 57.7085 214.178 58.0161C214.5 58.3188 214.667 58.8096 214.676 59.4883V64H216.434V59.5469C216.434 58.3311 216.153 57.4619 215.592 56.9395C215.03 56.417 214.276 56.1558 213.329 56.1558C212.674 56.1558 212.076 56.2754 211.534 56.5146C210.992 56.749 210.531 57.1177 210.15 57.6206H210.135C209.911 57.1274 209.566 56.7612 209.103 56.522C208.639 56.2778 208.092 56.1558 207.462 56.1558C206.861 56.1558 206.314 56.2681 205.821 56.4927C205.328 56.7124 204.903 57.0396 204.547 57.4741H204.525L204.459 56.3096H202.811V64Z" fill="white"/>
<path d="M22.873 0.67057C20.5238 1.25557 18.9882 3.12939 18.8602 5.56994C18.7688 7.37064 19.2167 8.46752 20.6152 9.87518C21.118 10.3871 21.6664 10.8532 21.8309 10.9263L22.1234 11.0543V11.8038V12.5442L21.7852 12.5991C21.5933 12.6356 20.3501 12.6174 19.0065 12.5717C16.3648 12.4803 15.3959 12.5351 14.5824 12.8459C13.6409 13.1932 13.257 13.7051 13.257 14.6192C13.257 15.5606 13.906 16.3742 14.9023 16.6849C15.4599 16.8678 15.6976 16.8769 18.8237 16.8678C21.4562 16.8586 22.1691 16.8769 22.2331 16.9683C22.2697 17.0323 22.3062 17.7727 22.3062 18.6136V20.1492H21.968C21.1362 20.1584 19.9205 20.5971 19.299 21.109C18.9516 21.4106 18.9242 21.301 19.2624 20.9536C19.6372 20.5697 19.4635 20.4783 18.6591 20.6428C17.9644 20.7891 17.288 21.109 16.8767 21.4929C16.6573 21.694 16.6116 21.7031 16.5202 21.5752C16.4288 21.4563 16.3374 21.4472 16.0083 21.5295C15.4508 21.6574 15.1674 21.822 14.7835 22.2424C14.4087 22.6629 14.1528 23.1291 13.9791 23.7141L13.8603 24.1254L13.8237 23.8055C13.8055 23.6318 13.7598 23.449 13.7232 23.4124C13.5861 23.2662 12.8914 24.1803 12.7451 24.7104C12.5989 25.204 12.5989 26.3283 12.7543 26.7762C12.8091 26.9407 12.8 26.9407 12.7086 26.7945C12.5715 26.5751 12.3704 26.6025 12.2881 26.8402C12.2607 26.9499 12.2241 27.3521 12.2333 27.736C12.2333 28.4489 12.4892 29.3447 12.7543 29.5641C12.9097 29.6921 12.9371 29.8749 12.7908 29.7835C12.5989 29.6646 12.5441 29.9571 12.6812 30.4233C12.8823 31.1088 13.0468 31.3739 13.6044 31.9681C13.8877 32.2606 14.1254 32.5622 14.1345 32.6353C14.1985 33.0649 15.3228 34.3721 15.8987 34.6828C16.0175 34.7377 16.0815 34.8382 16.0632 34.9022C16.0083 35.0393 16.4471 35.606 16.8676 35.9625C17.0138 36.0905 17.2149 36.2824 17.3063 36.3921C17.4069 36.5018 17.5897 36.6389 17.7268 36.6938C17.8639 36.7486 18.0467 36.9406 18.1473 37.1142C18.4306 37.6353 20.0211 39.0155 20.0211 38.7321C20.0211 38.6956 20.1125 38.7961 20.2313 38.9424C20.341 39.0886 20.7706 39.5365 21.1911 39.9296C22.0777 40.7796 22.0412 40.5511 21.7578 43.3481C21.4562 46.3006 20.9717 48.9239 20.533 49.966C20.3044 50.5053 19.0887 51.2182 17.8456 51.5564C17.0687 51.7575 15.6519 51.7301 14.8109 51.5016C12.4526 50.8343 9.80186 48.5857 8.61358 46.2457C8.38507 45.7796 7.90976 44.4267 7.82749 43.9971C7.77265 43.6772 7.77265 43.6681 8.01944 43.7046C8.16569 43.7321 8.66843 43.8783 9.14374 44.0246C9.82015 44.2439 10.2223 44.3079 10.9536 44.3353C11.5203 44.3536 11.8859 44.3262 11.8859 44.2714C11.8859 44.0977 4.57343 35.2313 4.42718 35.2313C4.37233 35.2313 4.13468 35.7797 3.88788 36.4378C3.65022 37.1051 2.82757 39.2989 2.05976 41.3098C1.29194 43.3207 0.569834 45.222 0.460147 45.5419C0.195068 46.264 0.277334 46.392 0.825772 46.1086C1.03601 45.9989 1.29194 45.8984 1.38335 45.8801C1.47476 45.8618 1.84952 45.6424 2.21515 45.3956C3.0378 44.8381 3.25718 44.7284 3.63194 44.6461C3.9153 44.573 3.93358 44.5913 4.07983 45.0026C5.48749 48.9056 6.96827 51.2731 9.6739 53.9421C11.8037 56.0445 13.5678 57.3059 16.4105 58.7501C17.5897 59.3534 18.0101 59.7464 18.1838 60.4137C18.3301 60.9987 18.6226 61.5014 19.1801 62.123C19.4269 62.3881 19.6098 62.6623 19.5915 62.7263C19.5184 62.9365 20.0028 63.6129 20.6975 64.2802C21.0814 64.6458 21.3922 64.9931 21.3922 65.0571C21.3922 65.2491 21.9223 65.9986 22.1691 66.1631C22.288 66.2454 22.4799 66.4099 22.5987 66.5379C22.7176 66.6567 22.9918 66.8213 23.2112 66.9035C23.4305 66.9767 23.851 67.26 24.1526 67.5434C24.4451 67.8176 24.7925 68.0735 24.9113 68.101C25.0393 68.1284 25.1216 68.1924 25.0941 68.2289C25.021 68.3569 25.4141 68.4483 26.0539 68.4574C26.383 68.4666 26.712 68.494 26.7851 68.5214C27.0137 68.622 28.2568 68.8688 28.4944 68.8688C28.7961 68.8688 29.3354 68.5763 29.6553 68.2381C29.893 67.9913 29.9478 67.973 30.0666 68.0827C30.1946 68.2015 30.2769 68.1924 30.7156 68.037C31.3555 67.8085 31.7668 67.4703 32.2238 66.7939C32.4341 66.4831 32.6443 66.2637 32.7083 66.2911C32.9185 66.3551 33.3573 66.1174 33.6955 65.7427C34.0428 65.3588 34.3262 64.7829 34.4267 64.2528C34.4541 64.0791 34.5181 63.9603 34.573 63.9877C34.7375 64.0882 35.2768 63.5581 35.5236 63.0553C35.7155 62.6531 35.7887 62.3606 35.8161 61.7848C35.8526 61.0992 35.8709 61.0444 36.0537 61.0444C36.5016 61.0627 36.7941 59.7373 36.5382 58.8141C36.4651 58.5399 36.3737 58.2474 36.3371 58.156C36.2914 58.0463 36.328 58.0097 36.4468 58.0189C36.593 58.0371 36.6113 57.9549 36.593 57.1688L36.5839 56.3004L37.0866 55.8891C38.0007 55.1578 40.2676 52.8544 41.0445 51.8672C42.5893 49.9203 43.9421 47.5437 44.6459 45.5145C45.1121 44.1617 45.0481 44.2531 45.3772 44.3171C45.5326 44.3536 46.0993 44.6735 46.6477 45.03C47.187 45.3865 47.6532 45.6516 47.6806 45.6242C47.708 45.5967 47.9183 45.6516 48.1468 45.7521C48.6404 45.9624 48.814 45.9715 48.814 45.7887C48.814 45.7156 48.5398 45.0026 48.2108 44.2074C47.4704 42.4524 46.8854 40.9807 45.6605 37.7084C45.1395 36.3281 44.6825 35.1764 44.6368 35.1307C44.5362 35.0302 44.4723 35.085 43.7319 35.9168C42.1323 37.7267 40.4504 39.829 38.5583 42.3518C37.0409 44.3719 37.0226 44.4359 37.9093 44.2256C38.2749 44.1434 38.4486 44.1342 38.4943 44.1982C38.5308 44.2622 38.9056 44.1982 39.6094 44.0154C40.8617 43.6772 40.9531 43.6772 40.9531 43.9149C40.9531 44.381 39.9202 46.5748 39.189 47.6625C38.2475 49.0519 36.3097 50.7521 35.0848 51.2639L34.7558 51.4102L34.5181 51.008C34.2987 50.6332 33.7594 50.0756 33.403 49.8654C33.2659 49.7923 33.2567 49.7557 33.3573 49.6826C33.6498 49.4906 32.6991 48.1287 31.9405 47.6534C31.7485 47.5437 31.6571 47.4249 31.6937 47.3426C31.7668 47.1415 31.3098 46.4285 30.871 46.0812C30.6608 45.9075 30.286 45.6607 30.0301 45.5328C29.7833 45.4048 29.6462 45.2951 29.7376 45.286C29.9844 45.286 29.9204 45.0757 29.4999 44.4907C29.0612 43.8966 28.723 43.5949 28.2202 43.3207C28.0191 43.2202 27.8455 43.0374 27.7906 42.882C27.7449 42.7357 27.5895 42.4706 27.4433 42.2878C27.297 42.105 27.1508 41.8674 27.1234 41.7668C27.0137 41.4103 26.7851 36.4835 26.648 31.7578C26.5749 29.1162 26.4835 26.0449 26.4561 24.9389L26.3921 22.9097L26.9223 22.7178C27.2056 22.6081 27.5621 22.4618 27.6992 22.3887C27.8455 22.3156 27.9826 22.2881 28.01 22.3339C28.0374 22.3796 28.3025 22.4344 28.5858 22.471C28.8783 22.4984 29.2714 22.5532 29.4634 22.5806C29.701 22.6172 29.9752 22.5806 30.3317 22.4618C30.6151 22.3613 31.0995 22.2699 31.4012 22.2607C31.7028 22.2516 32.1141 22.2333 32.3244 22.215C32.7174 22.1876 33.5492 21.758 33.5492 21.5843C33.5492 21.5203 33.5949 21.5478 33.6498 21.6392C33.7412 21.7854 33.8234 21.8037 34.3079 21.7397C34.6187 21.7031 34.966 21.6757 35.0848 21.6849C35.3773 21.7031 35.6241 21.566 36.072 21.1364C36.3919 20.8256 36.5199 20.7708 36.8947 20.7525C37.4705 20.716 37.8362 20.524 38.2475 20.0396C38.5765 19.6556 38.933 18.7324 38.9513 18.2388C38.9513 18.0103 38.9513 18.0103 39.0336 18.2023C39.1433 18.4856 39.253 18.4674 39.4906 18.1474C40.0482 17.3522 40.103 16.1731 39.6186 14.9848C39.5546 14.8203 39.5637 14.8203 39.7008 14.9208C40.0573 15.2133 40.1396 14.6831 39.8928 13.7234C39.7283 13.0744 39.4998 12.6082 39.1707 12.206C39.0244 12.0415 38.9787 11.941 39.0701 11.9775C39.3261 12.0781 39.3901 11.941 39.2712 11.4839C39.0976 10.8258 38.7868 10.1951 38.4394 9.76549C38.2475 9.52783 38.1378 9.32674 38.1744 9.23533C38.2749 8.97025 37.9184 8.09275 37.5437 7.66315C37.3426 7.43463 36.9861 7.15127 36.7393 7.0233C36.3919 6.84963 36.2914 6.74908 36.2914 6.58455C36.2914 6.21893 35.9075 5.77103 35.3591 5.48767C34.9477 5.28658 34.6644 5.2226 34.0337 5.1769C33.3755 5.14033 33.275 5.11291 33.4852 5.04893C33.8143 4.9301 33.796 4.79299 33.4121 4.53705C32.9002 4.20799 32.0593 4.03432 31.3463 4.0983C30.7979 4.15314 30.7339 4.144 30.7522 3.99776C30.7613 3.86064 30.6425 3.82408 30.0118 3.73267C29.5913 3.68697 29.244 3.62299 29.2257 3.59557C29.2074 3.57729 29.0886 3.35791 28.9698 3.10197C28.4305 1.99596 27.0685 0.944786 25.7705 0.634003C24.9936 0.451195 23.7048 0.469475 22.873 0.67057ZM25.5603 4.23541C26.1727 4.52791 26.3555 4.78385 26.4652 5.54252C26.6115 6.52971 25.9259 7.67229 25.021 7.94651C24.2166 8.18416 23.5768 8.08361 22.8638 7.59002C22.3245 7.21526 22.0869 6.70338 22.0869 5.93557C22.096 5.15862 22.288 4.69244 22.7267 4.43651C23.6408 3.89721 24.6828 3.81494 25.5603 4.23541ZM30.7613 6.57541C31.063 6.67596 31.3555 6.80393 31.4194 6.85877C31.4834 6.92276 31.8308 6.99588 32.1964 7.03244C32.9094 7.10557 34.0154 7.54432 34.3627 7.89166C34.4724 8.00135 34.6004 8.08361 34.6552 8.08361C34.7101 8.08361 34.7375 8.1476 34.7009 8.22072C34.6552 8.35783 35.2494 9.13478 35.8618 9.71979C36.1634 10.0031 36.1817 10.0397 36.0355 10.1494C35.8892 10.2591 35.8983 10.3048 36.1634 10.8441C36.328 11.164 36.657 11.6942 36.9038 12.0232C37.2969 12.5351 37.3243 12.6174 37.1689 12.6174C37.0044 12.6082 36.9769 12.6539 36.9952 13.0013C37.0044 13.2115 37.1598 13.7234 37.3426 14.1438C37.5254 14.5552 37.6991 14.9482 37.7265 15.0214C37.763 15.1036 37.7448 15.131 37.6808 15.0853C37.5071 14.9756 37.3883 15.4327 37.3883 16.2188C37.3883 16.7581 37.3517 16.9774 37.2512 17.0597C36.913 17.3431 36.785 17.4802 36.3188 18.1109C35.8892 18.6776 35.7978 18.7507 35.6881 18.641C35.4505 18.4034 34.7649 18.7416 33.4395 19.7562C33.147 19.9756 32.9094 20.1492 32.9094 20.131C32.9094 20.1127 33.0099 19.9573 33.1379 19.7836C33.4578 19.3449 33.339 19.2443 32.6169 19.3449C32.1416 19.418 31.6023 19.5917 30.8344 19.939C30.7705 19.9664 30.7156 19.9207 30.7156 19.8476C30.7156 19.5094 29.308 19.5917 28.4396 19.9756C28.074 20.131 28.0191 20.1401 27.9551 20.0121C27.8912 19.9116 27.6992 19.875 27.1508 19.875H26.4195V18.3211V16.7672L29.6462 16.7855C33.7412 16.8038 34.0062 16.7581 34.838 15.8806C36.0994 14.5643 35.4322 12.9281 33.4761 12.5534C32.7266 12.4071 31.4651 12.398 28.5493 12.5077L26.3281 12.5899V12.0872C26.3281 11.2097 26.383 11.0817 26.9405 10.7344C27.6352 10.2956 28.6133 9.22619 28.9972 8.47666C29.3171 7.86424 29.4176 7.59002 29.6187 6.83135C29.7467 6.30119 29.8655 6.28291 30.7613 6.57541ZM19.7103 22.7909C19.6006 22.9646 19.9114 23.056 20.6609 23.0834C21.0905 23.0925 21.639 23.0651 21.8858 23.0103L22.3337 22.9097L22.2697 29.6464C22.2423 33.3483 22.1874 36.6206 22.16 36.9314C22.1051 37.4616 22.096 37.489 21.8858 37.4433C21.6755 37.4067 21.575 37.2422 21.7578 37.2422C21.9498 37.2422 21.8401 36.9771 21.4744 36.5658C21.2185 36.2824 20.8712 36.0356 20.3958 35.798C19.9754 35.5969 19.7012 35.4141 19.7286 35.341C19.8291 35.0302 18.9608 34.1161 18.2021 33.7231C17.8913 33.5677 17.7542 33.4488 17.7908 33.3666C17.9096 33.0467 17.1144 32.1235 16.3466 31.6756C16.0358 31.5019 15.9444 31.3922 16.0083 31.3282C16.1363 31.2003 15.8438 30.6335 15.2954 29.9571C14.9115 29.491 14.8749 29.3904 14.8932 29.0248C14.9023 28.6592 14.7287 27.5806 14.5733 27.0596C14.5367 26.9681 14.555 26.9133 14.6007 26.9407C14.7652 27.0413 14.8658 26.8585 15.1034 26.0449L15.3502 25.2131L16.4471 24.1254C17.0412 23.5221 17.4708 23.1382 17.3977 23.2662C17.3155 23.4033 17.2789 23.577 17.3063 23.6684C17.3794 23.8421 17.5257 23.8146 18.2844 23.4673C18.5586 23.3485 18.8602 23.2296 18.9608 23.2022C19.0522 23.1839 19.2624 23.0651 19.4178 22.9463C19.7286 22.6995 19.7834 22.6629 19.7103 22.7909ZM28.2111 47.0227C28.3756 47.2512 28.7869 47.6991 29.1251 48.0281C29.4908 48.3755 29.829 48.8051 29.9387 49.0336C30.0392 49.2621 30.4231 49.7557 30.7887 50.1396C31.1452 50.5235 31.4469 50.9074 31.4469 50.9989C31.4469 51.0903 31.5291 51.2914 31.6297 51.4559L31.8125 51.7484L31.328 51.6661C29.3628 51.3188 27.9551 49.5729 27.7266 47.1872C27.6626 46.4285 27.7723 46.392 28.2111 47.0227ZM34.0245 59.4814C34.0428 60.1395 34.0245 60.5874 33.9788 60.5051C33.9423 60.432 33.8691 60.368 33.8234 60.368C33.6589 60.368 33.3755 61.0718 33.211 61.8671C33.0556 62.6257 33.0465 62.6531 32.7905 62.6531C32.6351 62.6531 32.5163 62.7171 32.4798 62.8085C32.4432 62.8999 32.3152 63.1193 32.1873 63.3021C32.0593 63.4758 31.8308 63.878 31.6845 64.1888C31.4743 64.6275 31.392 64.7281 31.2915 64.6549C31.2275 64.6001 31.0721 64.5818 30.935 64.6092C30.6516 64.6824 29.8747 65.3953 29.6096 65.8249C29.4359 66.0992 29.4085 66.1174 29.308 65.9803C29.1983 65.8432 29.1251 65.8432 28.2842 66.0626C27.1691 66.3551 26.8857 66.4191 27.0411 66.346C27.233 66.2546 27.1599 66.0443 26.8948 65.9072C26.6755 65.7884 26.1453 65.6421 25.3044 65.4502C25.1581 65.4136 25.0484 65.3314 25.0484 65.2491C25.0484 65.0206 24.2441 64.2436 23.723 63.9603C23.394 63.7957 23.2386 63.6586 23.266 63.5764C23.3666 63.3021 22.5439 62.2784 21.7395 61.6934C21.5201 61.5289 21.5019 61.4923 21.6207 61.346C21.7395 61.1815 21.8126 61.2089 23.0009 61.8214C23.8327 62.251 24.3629 62.4703 24.564 62.4703C24.7742 62.4703 25.2221 62.2784 25.9442 61.8762C26.5292 61.5563 28.3116 60.6971 29.893 59.9658C31.4743 59.2437 33.0373 58.5216 33.3664 58.3662C33.7686 58.1742 33.9697 58.1194 33.9788 58.1925C33.988 58.2565 34.0154 58.8324 34.0245 59.4814Z" fill="white"/>
</svg>
