<svg width="134" height="52" viewBox="0 0 134 52" fill="none" xmlns="http://www.w3.org/2000/svg">
<path fill-rule="evenodd" clip-rule="evenodd" d="M33.8887 22.9889C34.411 23.7875 38.8903 26.9229 40.0395 27.8197C41.9135 29.2794 41.6719 29.1158 44.5058 29.0962C46.3732 29.0831 48.2472 29.0765 50.1147 28.9325C57.0099 28.4088 63.977 27.7281 70.9114 27.2371L102.652 25.4501C105.91 25.3323 110.5 25.4959 113.556 25.0836C111.114 22.4194 109.188 22.7991 105.916 22.7991L54.594 22.9038C48.5084 22.9038 39.6412 22.3801 33.8887 22.9889ZM66.1513 6.42143L97.6174 6.44761C99.4979 6.44761 99.9288 5.29555 100.889 4.30058C101.862 3.29253 102.874 2.48739 103.585 1.34187L71.7798 1.30914C70.2388 1.43351 66.9022 5.11881 66.1513 6.42143ZM27.0065 18.0534L104.343 17.9748L98.6229 12.5221C96.8403 10.9511 97.0623 11.3112 94.0587 11.3308H19.1318C19.837 12.8167 21.3845 13.4124 22.8798 14.9899C23.794 15.9456 25.6288 18.0534 27.0065 18.0534Z" fill="white"/>
<path d="M126.314 49.3947C126.452 49.5584 126.615 49.7155 126.798 49.8726C126.981 50.0231 127.183 50.1606 127.411 50.285C127.64 50.4093 127.882 50.5141 128.149 50.5926C128.417 50.6777 128.698 50.7235 128.998 50.7301V51.4436C128.273 51.4239 127.647 51.2799 127.118 51.0115C126.589 50.7432 126.151 50.3962 125.812 49.9839L126.314 49.3947ZM132.4 48.8514C132.4 49.146 132.348 49.4406 132.25 49.7351C132.152 50.0297 131.982 50.3046 131.747 50.5533C131.512 50.8021 131.199 51.005 130.807 51.1686C130.415 51.3323 129.932 51.4239 129.357 51.4436V50.7301C129.788 50.7235 130.141 50.6515 130.428 50.5337C130.715 50.4093 130.944 50.2653 131.114 50.0886C131.283 49.9118 131.401 49.722 131.473 49.5126C131.545 49.3031 131.577 49.1002 131.577 48.9103C131.577 48.6158 131.519 48.367 131.394 48.1576C131.27 47.9546 131.107 47.7779 130.905 47.6404C130.702 47.4964 130.461 47.3786 130.193 47.2739C129.925 47.1692 129.645 47.0775 129.351 46.999V46.1218C129.716 46.2266 130.082 46.3378 130.441 46.4687C130.807 46.5997 131.133 46.7568 131.421 46.9531C131.708 47.1495 131.943 47.4048 132.126 47.7125C132.309 48.0136 132.4 48.3932 132.4 48.8514ZM131.675 43.8373C131.375 43.4773 131.022 43.2089 130.624 43.0191C130.226 42.8293 129.801 42.7245 129.344 42.6984V41.9849C129.965 42.011 130.513 42.1354 130.983 42.358C131.46 42.574 131.865 42.8751 132.191 43.2613L131.675 43.8373ZM126.922 44.3741C126.922 44.6228 126.974 44.8323 127.085 45.009C127.196 45.1858 127.346 45.3298 127.536 45.4541C127.725 45.5785 127.947 45.6832 128.202 45.7683C128.45 45.8534 128.717 45.9451 128.998 46.0236V46.9008C128.639 46.796 128.293 46.6913 127.94 46.5735C127.594 46.4622 127.281 46.3116 127.007 46.1284C126.726 45.9451 126.504 45.716 126.334 45.4411C126.164 45.1661 126.079 44.8257 126.079 44.4134C126.079 44.0468 126.158 43.713 126.308 43.4184C126.458 43.1238 126.667 42.8685 126.935 42.6591C127.203 42.4496 127.509 42.286 127.862 42.1681C128.221 42.0503 128.593 41.9849 128.998 41.9718V42.6853C128.691 42.6918 128.417 42.7376 128.169 42.8227C127.921 42.9078 127.699 43.0191 127.509 43.1762C127.32 43.3268 127.176 43.5035 127.072 43.7064C126.974 43.9028 126.922 44.1253 126.922 44.3741ZM121.143 47.7779H122.077L124.473 51.2799H123.455L121.143 47.7779ZM123.539 44.7996C123.539 44.5181 123.494 44.2563 123.396 44.0141C123.298 43.7719 123.161 43.5624 122.984 43.3857C122.802 43.2089 122.593 43.078 122.338 42.9798C122.09 42.8816 121.809 42.8358 121.509 42.8358H119.289V42.1223H121.574C121.966 42.1223 122.331 42.1812 122.671 42.3056C123.011 42.43 123.304 42.6002 123.552 42.8358C123.801 43.0649 123.996 43.3464 124.14 43.6737C124.284 44.001 124.356 44.3741 124.356 44.7996C124.356 45.2185 124.284 45.5982 124.14 45.9254C123.996 46.2593 123.801 46.5342 123.552 46.7633C123.304 46.9924 123.004 47.1692 122.671 47.2935C122.331 47.4179 121.966 47.4834 121.574 47.4834H119.289V46.7633H121.509C121.816 46.7633 122.09 46.7175 122.338 46.6193C122.586 46.5211 122.802 46.3902 122.984 46.2135C123.161 46.0367 123.298 45.8338 123.396 45.5982C123.494 45.356 123.539 45.0941 123.539 44.7996ZM118.956 51.2799H118.172V42.1223H118.956V51.2799ZM116.252 50.5664V51.2799H111.584V50.5664H116.252ZM116.154 46.2266V46.94H111.577V46.2266H116.154ZM116.252 42.1223V42.8358H111.584V42.1223H116.252ZM110.461 42.1223H111.244V51.2799H110.461V42.1223ZM104.963 46.7044L108.992 51.2799H107.986L104.453 47.2281L104.963 46.7044ZM107.607 42.1223H108.606L103.533 47.7125V46.6128L107.607 42.1223ZM102.416 42.1223H103.2V51.2799H102.416V42.1223ZM97.2513 47.7779H98.1851L100.581 51.2799H99.5628L97.2513 47.7779ZM99.6542 44.7996C99.6542 44.5181 99.6085 44.2563 99.5106 44.0141C99.4126 43.7719 99.2755 43.5624 99.0992 43.3857C98.9164 43.2089 98.7074 43.078 98.4528 42.9798C98.2047 42.8816 97.9239 42.8358 97.6235 42.8358H95.4035V42.1223H97.6888C98.0806 42.1223 98.4462 42.1812 98.7858 42.3056C99.1253 42.43 99.4192 42.6002 99.6673 42.8358C99.9154 43.0649 100.111 43.3464 100.255 43.6737C100.399 44.001 100.47 44.3741 100.47 44.7996C100.47 45.2185 100.399 45.5982 100.255 45.9254C100.111 46.2593 99.9154 46.5342 99.6673 46.7633C99.4126 46.9924 99.1188 47.1692 98.7858 47.2935C98.4462 47.4179 98.0806 47.4834 97.6888 47.4834H95.4035V46.7633H97.6235C97.9304 46.7633 98.2047 46.7175 98.4528 46.6193C98.7009 46.5211 98.9164 46.3902 99.0992 46.2135C99.2755 46.0367 99.4126 45.8338 99.5106 45.5982C99.6085 45.356 99.6542 45.0941 99.6542 44.7996ZM95.0639 51.2799H94.2804V42.1223H95.0639V51.2799ZM92.3672 46.7044C92.3672 47.3524 92.2693 47.9612 92.0669 48.5307C91.8644 49.1002 91.5837 49.5911 91.2115 50.0166C90.8393 50.4355 90.3953 50.7694 89.8729 51.0181C89.3505 51.2603 88.7694 51.4043 88.136 51.4305V50.7301C88.6584 50.7039 89.1285 50.5861 89.5464 50.3701C89.9643 50.1606 90.3235 49.8791 90.6173 49.5191C90.9111 49.1591 91.1397 48.7467 91.3029 48.2623C91.4596 47.7845 91.5445 47.2608 91.5445 46.7044C91.5445 46.148 91.4661 45.6243 91.3029 45.1465C91.1397 44.6686 90.9111 44.2497 90.6173 43.8962C90.3235 43.5428 89.9643 43.2613 89.5464 43.0518C89.1285 42.8424 88.6584 42.7245 88.136 42.6984V41.9849C88.7759 42.011 89.3505 42.1485 89.8729 42.3972C90.3953 42.646 90.8393 42.9798 91.2115 43.3988C91.5837 43.8242 91.8644 44.3152 92.0669 44.8847C92.2693 45.4541 92.3672 46.0629 92.3672 46.7044ZM83.4935 46.7044C83.4935 46.0498 83.5915 45.4345 83.7939 44.865C83.9963 44.2955 84.2836 43.8046 84.6558 43.3791C85.028 42.9602 85.485 42.6264 86.0139 42.3776C86.5428 42.1354 87.137 41.998 87.7965 41.9849V42.6853C87.2611 42.7049 86.7714 42.8162 86.3469 43.0256C85.916 43.2351 85.5503 43.5166 85.25 43.8766C84.9496 44.2366 84.7145 44.6556 84.5578 45.1334C84.4011 45.6112 84.3228 46.1415 84.3228 46.7044C84.3228 47.2739 84.4011 47.7976 84.5578 48.2819C84.7145 48.7663 84.9431 49.1853 85.25 49.5453C85.5569 49.9053 85.916 50.1868 86.3469 50.3897C86.7714 50.5992 87.2611 50.7104 87.7965 50.7235V51.4239C87.1436 51.4108 86.5494 51.2734 86.0205 51.0246C85.4916 50.7759 85.0345 50.4421 84.6623 50.0231C84.2901 49.5976 84.0028 49.1067 83.8004 48.5372C83.598 47.9743 83.4935 47.3655 83.4935 46.7044ZM76.866 44.0599L74.9789 50.8086L74.6068 49.5453L76.5134 42.7442L76.866 44.0599ZM80.183 50.9395C80.1373 50.789 80.0916 50.6384 80.0459 50.4682C80.0002 50.3046 79.9545 50.154 79.9153 50.0166C79.8761 49.8791 79.8435 49.7678 79.8239 49.6697L79.7847 49.5322L81.8154 42.1158H82.6904L80.183 50.9395ZM76.6897 42.1223H77.4014L79.948 51.2799H79.2362L76.6897 42.1223ZM71.3616 42.1223H72.2365L74.7569 51.2799H73.9734L71.3616 42.1223ZM70.6172 42.1223V42.8358H67.9727V42.1223H70.6172ZM67.6332 42.1223V51.2799H66.8496V42.1223H67.6332ZM66.5101 42.8293H63.8591V42.1158H66.5166V42.8293H66.5101ZM62.5793 50.5664V51.2799H57.9106V50.5664H62.5793ZM62.4879 46.2266V46.94H57.9106V46.2266H62.4879ZM62.5793 42.1223V42.8358H57.9106V42.1223H62.5793ZM56.7875 42.1223H57.5711V51.2799H56.7875V42.1223ZM47.9138 51.2799H47.1368V42.9078L47.9138 44.0337V51.2799ZM53.7643 42.1223H54.5479V50.5861L53.7643 49.5387V42.1223ZM48.051 42.1223L54.6001 51.2799H53.5162L47.065 42.1223H48.051ZM44.8058 46.7829V47.4441H41.4626L41.5214 46.7829H44.8058ZM42.318 42.1223V42.8358H39.6735V42.1223H42.318ZM39.334 42.1223V51.2799H38.5504V42.1223H39.334ZM38.2109 42.8293H35.5534V42.1158H38.2109V42.8293ZM27.3914 47.3001V51.2799H26.6209V47.3001H27.3914ZM33.1701 42.1223H33.9405V51.2799H33.1701V42.1223ZM27.3914 46.2396H32.8305V46.9531H26.6209V42.1223H27.3914V46.2396ZM25.0668 49.8137C24.6555 50.3177 24.1788 50.717 23.6369 51.005C23.0949 51.293 22.4615 51.4436 21.7368 51.4501V50.7301C22.2852 50.7301 22.7946 50.6057 23.2582 50.3701C23.7218 50.1279 24.1005 49.8006 24.3943 49.3947L25.0668 49.8137ZM17.917 46.7044C17.917 47.2608 18.0084 47.7779 18.1847 48.2492C18.361 48.7205 18.6091 49.1329 18.916 49.4864C19.2294 49.8398 19.5885 50.1213 20.0195 50.3373C20.4439 50.5533 20.901 50.6777 21.3972 50.7104V51.4239C20.79 51.3912 20.2219 51.2472 19.693 50.9985C19.1706 50.7497 18.7136 50.4224 18.3283 50.01C17.9431 49.5977 17.6427 49.1133 17.4272 48.5569C17.2118 48.0005 17.1008 47.3852 17.1008 46.7044C17.1008 46.0367 17.2118 45.4214 17.4272 44.8585C17.6492 44.2955 17.9496 43.8111 18.3283 43.3988C18.7136 42.9864 19.1641 42.6591 19.693 42.4169C20.2219 42.1747 20.79 42.0307 21.3972 41.9849V42.6984C20.901 42.7442 20.4439 42.8685 20.0195 43.0715C19.5951 43.2744 19.2294 43.5559 18.916 43.9093C18.6026 44.2628 18.361 44.6752 18.1847 45.1465C18.0084 45.6178 17.917 46.1415 17.917 46.7044ZM24.3943 44.0206C24.1005 43.6148 23.7218 43.3006 23.2582 43.0584C22.7946 42.8162 22.2852 42.6918 21.7368 42.6853V41.9718C22.455 41.9783 23.0949 42.1289 23.6499 42.4234C24.2049 42.7114 24.6685 43.1042 25.0538 43.5951L24.3943 44.0206ZM14.0645 48.0659L14.3649 48.8187H10.4537L10.741 48.0659H14.0645V48.0659ZM16.6241 51.2799H15.723L12.5954 43.4249L13.0263 42.3252L16.6241 51.2799ZM9.08244 51.2799H8.18136L11.9228 42.1223H12.7455L9.08244 51.2799ZM7.67858 42.1223H8.61884L5.24958 46.999L4.79904 46.3444L7.67858 42.1223ZM0.567871 42.1223H1.50813L4.98187 47.2215V51.2865H4.19179V47.3721L0.567871 42.1223Z" fill="white"/>
<path d="M126.334 49.8529L126.328 49.8464L126.204 49.9904C126.315 50.1082 126.439 50.2195 126.576 50.3242C126.778 50.4813 127 50.6253 127.255 50.7497C127.503 50.8741 127.771 50.9723 128.058 51.0377C128.261 51.0836 128.483 51.1163 128.705 51.1359V51.0116L128.522 50.9854C128.365 50.9592 128.215 50.9265 128.071 50.8806C127.928 50.8348 127.79 50.789 127.66 50.7301C127.536 50.6777 127.405 50.6188 127.281 50.5468C127.157 50.4813 127.039 50.4093 126.935 50.3373C126.824 50.2653 126.72 50.1868 126.622 50.1017C126.517 50.0231 126.419 49.938 126.334 49.8529ZM132.067 49.2442C132.087 49.1133 132.1 48.9823 132.1 48.8514C132.1 48.642 132.08 48.4587 132.041 48.295C132.002 48.1379 131.943 47.9874 131.871 47.863C131.793 47.7256 131.702 47.6012 131.597 47.4964C131.493 47.3852 131.382 47.287 131.258 47.2019C131.127 47.1102 130.983 47.0317 130.833 46.9531C130.683 46.8811 130.52 46.8091 130.35 46.7502C130.18 46.6913 130.004 46.6324 129.815 46.5735L129.651 46.5211V46.7764L129.873 46.8484C130.017 46.8942 130.161 46.9466 130.298 46.999C130.441 47.0513 130.579 47.1168 130.709 47.1822C130.84 47.2477 130.964 47.3197 131.075 47.3983C131.199 47.4834 131.303 47.575 131.401 47.6732C131.499 47.7779 131.584 47.8892 131.656 48.0136C131.734 48.1445 131.793 48.2819 131.826 48.439C131.865 48.5896 131.884 48.7467 131.884 48.9169C131.884 49.0282 131.871 49.146 131.852 49.2638C131.832 49.3816 131.8 49.4995 131.76 49.6173C131.721 49.7417 131.662 49.866 131.591 49.9773C131.519 50.0886 131.434 50.1999 131.336 50.3046L131.329 50.3111C131.225 50.4159 131.107 50.5075 130.977 50.5926C130.846 50.6777 130.703 50.7497 130.546 50.8152C130.383 50.8872 130.2 50.9395 130.004 50.9723C129.893 50.9919 129.782 51.005 129.658 51.0181V51.1359C129.815 51.1228 129.958 51.1032 130.102 51.077C130.324 51.0377 130.52 50.9788 130.703 50.9068C130.885 50.8283 131.042 50.7497 131.186 50.6581C131.323 50.5664 131.44 50.4682 131.545 50.3635C131.649 50.2588 131.734 50.141 131.806 50.0231C131.878 49.9053 131.937 49.7809 131.982 49.6566C132.008 49.5126 132.041 49.3751 132.067 49.2442ZM131.369 43.1304C131.473 43.2089 131.578 43.3006 131.675 43.3988L131.793 43.2678C131.695 43.1697 131.584 43.078 131.467 42.9929C131.277 42.8555 131.075 42.7311 130.859 42.6329C130.637 42.5347 130.402 42.4496 130.154 42.3972C129.991 42.358 129.821 42.3318 129.645 42.3122V42.43C129.795 42.4496 129.939 42.4758 130.082 42.5151C130.311 42.574 130.539 42.6525 130.755 42.7573C130.97 42.8555 131.179 42.9798 131.369 43.1304ZM126.674 44.7865C126.641 44.6556 126.622 44.5181 126.622 44.3675C126.622 44.2235 126.635 44.0795 126.667 43.9486C126.7 43.8111 126.746 43.6802 126.811 43.5559C126.87 43.4315 126.948 43.3202 127.033 43.2155C127.118 43.1107 127.216 43.0191 127.327 42.9275C127.431 42.8424 127.549 42.7638 127.679 42.6984C127.803 42.6329 127.941 42.574 128.078 42.5282C128.274 42.4627 128.476 42.4234 128.705 42.3972V42.286L128.469 42.3187C128.293 42.3514 128.123 42.3907 127.967 42.4431C127.81 42.4954 127.653 42.5609 127.516 42.6394C127.379 42.7114 127.248 42.7965 127.131 42.8882C127.013 42.9798 126.909 43.0846 126.824 43.1958C126.733 43.3071 126.654 43.4249 126.589 43.5559C126.524 43.6802 126.478 43.8177 126.445 43.9552C126.413 44.0992 126.4 44.2497 126.4 44.4134C126.4 44.5966 126.419 44.7603 126.452 44.9108C126.484 45.0549 126.537 45.1792 126.609 45.2905C126.68 45.4083 126.765 45.5196 126.863 45.6178C126.961 45.716 127.066 45.8076 127.19 45.8862C127.32 45.9713 127.457 46.0498 127.594 46.1153C127.745 46.1873 127.901 46.2462 128.052 46.2986L128.718 46.508V46.2462L128.123 46.0498C127.993 46.004 127.862 45.9516 127.738 45.8927C127.614 45.8338 127.497 45.7683 127.392 45.7029C127.275 45.6309 127.177 45.5458 127.085 45.4607C126.994 45.3691 126.915 45.2709 126.844 45.1661C126.759 45.0483 126.706 44.9239 126.674 44.7865ZM127.222 44.3741C127.222 44.4723 127.235 44.5639 127.255 44.6425C127.275 44.7145 127.301 44.7865 127.34 44.8454C127.386 44.9108 127.431 44.9763 127.49 45.0352C127.549 45.0941 127.621 45.153 127.699 45.1989C127.784 45.2512 127.882 45.3036 127.98 45.3494C128.078 45.3952 128.189 45.4411 128.306 45.4803L128.698 45.6112L129.064 45.7225L129.442 45.8273L129.997 45.9909C130.174 46.0433 130.357 46.1087 130.552 46.1742C130.748 46.2396 130.931 46.3182 131.101 46.4033C131.277 46.4884 131.44 46.5866 131.597 46.6913C131.76 46.8026 131.904 46.927 132.035 47.071C132.165 47.215 132.283 47.3721 132.387 47.5423C132.492 47.719 132.577 47.9219 132.629 48.1445C132.681 48.3605 132.707 48.5961 132.707 48.8449C132.707 49.0085 132.694 49.1722 132.668 49.3358C132.642 49.4995 132.596 49.6631 132.544 49.8268C132.485 49.997 132.407 50.1606 132.315 50.3177C132.224 50.4682 132.106 50.6123 131.976 50.7497C131.845 50.8937 131.689 51.0181 131.506 51.1359C131.329 51.2472 131.14 51.3519 130.925 51.437C130.709 51.5287 130.468 51.5941 130.206 51.6465C129.952 51.6923 129.671 51.725 129.371 51.7381H129.312V51.7447H129.227L129.057 51.7512V51.7381H129.005C128.62 51.7316 128.261 51.6858 127.934 51.6072C127.601 51.5287 127.288 51.4174 126.994 51.2734C126.713 51.1294 126.452 50.9657 126.217 50.7824C125.982 50.5992 125.773 50.3897 125.59 50.1671L125.433 49.9708L126.334 48.9234L126.556 49.1918C126.622 49.2704 126.693 49.3424 126.765 49.4144C126.837 49.4864 126.915 49.5584 127.007 49.6304C127.092 49.6958 127.177 49.7678 127.268 49.8268C127.366 49.8922 127.464 49.9511 127.568 50.01C127.666 50.0624 127.777 50.1148 127.895 50.1671C128.012 50.213 128.13 50.2588 128.254 50.2981C128.372 50.3373 128.496 50.3635 128.626 50.3832C128.757 50.4028 128.887 50.4159 129.024 50.4224L129.155 50.429L129.357 50.4224C129.553 50.4159 129.736 50.4028 129.899 50.3701C130.056 50.3439 130.193 50.2981 130.317 50.2457C130.448 50.1933 130.559 50.1279 130.657 50.069C130.755 50.01 130.833 49.938 130.905 49.8726C130.977 49.8006 131.036 49.722 131.088 49.6435C131.134 49.5715 131.173 49.4929 131.199 49.4078C131.231 49.3162 131.251 49.2245 131.271 49.1394C131.284 49.0544 131.29 48.9758 131.29 48.8972C131.29 48.7729 131.277 48.6616 131.251 48.5569C131.225 48.4587 131.192 48.3736 131.147 48.295C131.094 48.2099 131.036 48.1314 130.97 48.0594C130.905 47.9874 130.827 47.9219 130.742 47.8696C130.65 47.8041 130.546 47.7452 130.441 47.6928C130.33 47.6405 130.213 47.5881 130.089 47.5357C129.958 47.4834 129.828 47.4375 129.69 47.3917L129.305 47.2739V47.2804L128.391 47.0121L127.862 46.8419C127.673 46.7764 127.497 46.7044 127.333 46.6324C127.164 46.5538 127.007 46.4622 126.857 46.364C126.7 46.2593 126.556 46.148 126.432 46.0171C126.308 45.8862 126.191 45.7422 126.099 45.5851C125.995 45.4214 125.923 45.2381 125.871 45.0352C125.825 44.8388 125.799 44.6228 125.799 44.4003C125.799 44.1974 125.818 44.001 125.864 43.8111C125.91 43.6213 125.975 43.438 126.06 43.2678C126.145 43.0977 126.249 42.9406 126.367 42.7965C126.484 42.6525 126.615 42.5216 126.765 42.4038C126.915 42.286 127.072 42.1812 127.242 42.0961C127.412 42.011 127.588 41.9325 127.784 41.867C127.98 41.8016 128.176 41.7492 128.378 41.7165C128.58 41.6838 128.789 41.6576 129.005 41.6576L129.312 41.651V41.6772H129.371C129.697 41.6903 130.01 41.7296 130.298 41.795C130.592 41.8605 130.866 41.9521 131.12 42.07C131.382 42.1878 131.617 42.3318 131.832 42.4889C132.048 42.6525 132.25 42.8358 132.426 43.0518L132.596 43.2482L131.675 44.2694L131.453 44.0141C131.316 43.8504 131.166 43.7064 131.009 43.582C130.853 43.4577 130.683 43.3529 130.507 43.2678C130.33 43.1827 130.141 43.1173 129.945 43.0649C129.749 43.0126 129.547 42.9864 129.338 42.9733L129.077 42.9602H129.011C128.737 42.9667 128.489 43.0126 128.267 43.0846C128.156 43.1238 128.052 43.1631 127.96 43.2155C127.869 43.2613 127.784 43.3202 127.699 43.3857C127.621 43.4446 127.555 43.5166 127.49 43.5886C127.431 43.6606 127.379 43.7391 127.34 43.8177C127.301 43.8962 127.268 43.9813 127.248 44.073C127.229 44.1777 127.222 44.2759 127.222 44.3741ZM121.92 48.079H121.698L123.618 50.9788H123.912L121.92 48.079ZM123.801 44.3348C123.827 44.4854 123.84 44.6425 123.84 44.7996C123.84 44.9632 123.827 45.1203 123.801 45.2709C123.775 45.428 123.729 45.572 123.677 45.7094C123.625 45.8469 123.553 45.9778 123.474 46.0956C123.396 46.2135 123.305 46.3247 123.2 46.4295C123.096 46.5342 122.978 46.6193 122.854 46.6979C122.73 46.7764 122.593 46.8419 122.456 46.9008C122.312 46.9531 122.162 46.999 122.005 47.0251C121.848 47.0513 121.685 47.0644 121.522 47.0644H119.602V47.1822H121.594C121.777 47.1822 121.946 47.1692 122.11 47.1364C122.273 47.1102 122.436 47.0644 122.586 47.0121C122.743 46.9531 122.887 46.8877 123.011 46.8091C123.141 46.7306 123.259 46.6389 123.37 46.5408C123.474 46.4426 123.572 46.3313 123.664 46.2069C123.749 46.0825 123.82 45.9516 123.886 45.8011C123.951 45.6571 123.997 45.5 124.029 45.3363C124.062 45.1661 124.075 44.9894 124.075 44.793C124.075 44.5966 124.062 44.4199 124.029 44.2563C123.997 44.0926 123.951 43.9355 123.886 43.7915C123.827 43.6475 123.749 43.5166 123.664 43.3922C123.579 43.2678 123.481 43.1566 123.37 43.0584C123.148 42.8555 122.887 42.6984 122.586 42.5936C122.43 42.5347 122.273 42.4954 122.11 42.4693C121.946 42.4431 121.77 42.43 121.587 42.43H119.596V42.5413H121.515C121.679 42.5413 121.842 42.5544 121.999 42.5805C122.155 42.6067 122.306 42.646 122.449 42.7049C122.593 42.7573 122.723 42.8293 122.854 42.9078C122.978 42.9864 123.096 43.078 123.2 43.1762C123.305 43.2809 123.396 43.3922 123.481 43.5166C123.559 43.6344 123.631 43.7719 123.683 43.9093C123.729 44.0337 123.768 44.1777 123.801 44.3348ZM119.25 43.1304V46.4622H121.515C121.653 46.4622 121.777 46.4491 121.901 46.4295C122.025 46.4098 122.136 46.3771 122.24 46.3378C122.351 46.292 122.449 46.2462 122.534 46.1873C122.625 46.1284 122.704 46.0629 122.782 45.9909C122.854 45.9189 122.919 45.8404 122.978 45.7553C123.037 45.6702 123.083 45.5785 123.122 45.4803C123.161 45.3821 123.194 45.2709 123.213 45.1596C123.233 45.0483 123.246 44.9239 123.246 44.793C123.246 44.6687 123.233 44.5508 123.213 44.4395C123.194 44.3283 123.161 44.2235 123.122 44.1188C123.083 44.0141 123.03 43.9224 122.978 43.8308C122.926 43.7457 122.861 43.6671 122.782 43.5951C122.704 43.5231 122.625 43.4577 122.534 43.3988C122.443 43.3399 122.345 43.294 122.234 43.2548C122.123 43.2155 122.012 43.1828 121.894 43.1631C121.777 43.1435 121.646 43.1304 121.515 43.1304H119.25V43.1304ZM118.466 50.9788H118.656V42.4169H118.466V50.9788ZM118.956 51.581H117.872V41.8212H121.581C121.79 41.8212 121.999 41.8409 122.201 41.8736C122.403 41.9063 122.593 41.9587 122.782 42.0241C123.154 42.1551 123.487 42.358 123.768 42.6133C123.905 42.7442 124.036 42.8882 124.147 43.0453C124.258 43.1958 124.349 43.366 124.428 43.5493C124.506 43.7326 124.571 43.929 124.61 44.1384C124.65 44.3479 124.669 44.5639 124.669 44.793C124.669 45.0221 124.65 45.2381 124.61 45.4476C124.571 45.6571 124.513 45.8534 124.428 46.0367C124.349 46.22 124.251 46.3902 124.147 46.5473C124.036 46.7044 123.912 46.8484 123.768 46.9793C123.631 47.1037 123.474 47.2215 123.311 47.3197C123.148 47.4179 122.972 47.503 122.789 47.5684C122.652 47.6143 122.521 47.6535 122.384 47.6863L125.048 51.5745H123.305L120.791 47.7714H119.263V51.5745H118.956V51.581ZM115.952 50.9788V50.8675H111.878V50.9788H115.952ZM115.861 46.6389V46.5211H111.884V46.6389H115.861ZM115.952 42.5347V42.4169H111.878V42.5282H115.952V42.5347ZM110.944 42.4169H110.755V50.9788H110.944V42.4169ZM110.461 41.8212H116.553V43.1304H111.545V45.9255H116.462V47.2412H111.545V50.2719H116.553V51.581H110.167V41.8212H110.461ZM108.332 50.9788L104.956 47.143L104.865 47.2346L108.123 50.9723H108.332V50.9788ZM107.934 42.4169H107.738L103.84 46.724V46.9335L107.934 42.4169ZM102.9 42.4169H102.71V50.9788H102.9V42.4169ZM102.416 41.8212H103.5V46.2135L107.477 41.8212H109.286L105.113 46.4229L109.651 51.581H107.856C106.641 50.1933 105.44 48.7925 104.219 47.4113L103.5 48.2034V51.581H102.123V41.8212H102.416ZM98.0351 48.079H97.8131L99.7328 50.9788H100.027L98.0351 48.079ZM99.9091 44.3348C99.9352 44.4854 99.9483 44.6425 99.9483 44.7996C99.9483 44.9632 99.9352 45.1203 99.9091 45.2709C99.883 45.428 99.8373 45.572 99.785 45.7094C99.7328 45.8469 99.661 45.9778 99.5826 46.0956C99.5042 46.2135 99.4128 46.3247 99.3084 46.4295C99.2039 46.5342 99.0864 46.6193 98.9623 46.6979C98.8382 46.7764 98.7011 46.8419 98.564 46.9008C98.4203 46.9531 98.2702 46.999 98.1134 47.0251C97.9567 47.0513 97.7935 47.0644 97.6303 47.0644H95.704V47.1822H97.6956C97.8784 47.1822 98.0482 47.1692 98.2114 47.1364C98.3746 47.1102 98.5379 47.0644 98.6881 47.0121C98.8448 46.9531 98.9819 46.8877 99.1125 46.8091C99.2431 46.7306 99.3606 46.6389 99.4716 46.5408C99.5826 46.4426 99.674 46.3313 99.7654 46.2069C99.8503 46.0825 99.9221 45.9516 99.9874 45.8011C100.053 45.6571 100.098 45.5 100.131 45.3363C100.164 45.1661 100.177 44.9894 100.177 44.793C100.177 44.5966 100.164 44.4199 100.131 44.2563C100.098 44.0926 100.053 43.9355 99.9874 43.7915C99.9287 43.6475 99.8503 43.5166 99.7654 43.3922C99.6805 43.2678 99.5826 43.1566 99.4716 43.0584C99.2496 42.8555 98.9884 42.6984 98.6881 42.5936C98.5313 42.5347 98.3746 42.4954 98.2114 42.4693C98.0482 42.4431 97.8719 42.43 97.689 42.43H95.6975V42.5413H97.6237C97.787 42.5413 97.9502 42.5544 98.1069 42.5805C98.2636 42.6067 98.4138 42.646 98.5575 42.7049C98.7011 42.7573 98.8317 42.8293 98.9623 42.9078C99.0864 42.9864 99.2039 43.078 99.3084 43.1762C99.4128 43.2809 99.5043 43.3922 99.5891 43.5166C99.6675 43.6344 99.7393 43.7719 99.7916 43.9093C99.8438 44.0337 99.883 44.1777 99.9091 44.3348ZM95.3645 43.1304V46.4622H97.6303C97.7674 46.4622 97.8914 46.4491 98.0155 46.4295C98.133 46.4098 98.2506 46.3771 98.355 46.3378C98.466 46.292 98.564 46.2462 98.6489 46.1873C98.7403 46.1284 98.8186 46.0629 98.897 45.9909C98.9688 45.9189 99.0341 45.8404 99.0929 45.7553C99.1516 45.6702 99.1974 45.5785 99.2365 45.4803C99.2757 45.3821 99.3084 45.2709 99.3279 45.1596C99.3475 45.0483 99.3606 44.9239 99.3606 44.793C99.3606 44.6687 99.3475 44.5508 99.3279 44.4395C99.3084 44.3283 99.2757 44.2235 99.2365 44.1188C99.1974 44.0141 99.1451 43.9224 99.0929 43.8308C99.0406 43.7457 98.9754 43.6671 98.897 43.5951C98.8186 43.5231 98.7403 43.4577 98.6489 43.3988C98.5575 43.3399 98.4595 43.294 98.3485 43.2548C98.2375 43.2155 98.1265 43.1828 98.009 43.1631C97.8914 43.1435 97.7609 43.1304 97.6303 43.1304H95.3645V43.1304ZM94.5809 50.9788H94.7703V42.4169H94.5809V50.9788ZM95.0641 51.581H93.9802V41.8212H97.689C97.898 41.8212 98.1069 41.8409 98.3093 41.8736C98.5118 41.9063 98.7011 41.9587 98.8905 42.0241C99.2627 42.1551 99.5957 42.358 99.8764 42.6133C100.014 42.7442 100.144 42.8882 100.249 43.0453C100.36 43.1958 100.451 43.366 100.529 43.5493C100.608 43.7326 100.673 43.929 100.712 44.1384C100.751 44.3479 100.771 44.5639 100.771 44.793C100.771 45.0221 100.751 45.2381 100.712 45.4476C100.673 45.6571 100.614 45.8534 100.529 46.0367C100.451 46.22 100.36 46.3902 100.249 46.5473C100.138 46.7044 100.014 46.8484 99.8699 46.9793C99.7328 47.1037 99.5761 47.2215 99.4128 47.3197C99.2496 47.4179 99.0733 47.503 98.8905 47.5684C98.7533 47.6143 98.6228 47.6535 98.4856 47.6863L101.15 51.5745H99.4063L96.8924 47.7714H95.3645V51.5745H95.0641V51.581ZM92.0018 47.6012C92.0475 47.3197 92.0736 47.0186 92.0736 46.7109C92.0736 46.4033 92.0475 46.1022 92.0018 45.8207C91.9561 45.5327 91.8842 45.2578 91.7928 44.9894C91.7014 44.721 91.5839 44.4723 91.4533 44.2432C91.3227 44.0141 91.166 43.7981 90.9962 43.6017C90.8264 43.4053 90.6371 43.2351 90.4281 43.078C90.2192 42.9209 89.9972 42.79 89.7556 42.6722C89.514 42.5609 89.2593 42.4693 88.9851 42.4038C88.8088 42.3645 88.626 42.3318 88.4366 42.3122V42.43C88.6129 42.4496 88.7892 42.4823 88.9524 42.5216C89.2071 42.5871 89.4487 42.6722 89.6838 42.79C89.9123 42.9078 90.1278 43.0387 90.3171 43.1893C90.513 43.3399 90.6893 43.5166 90.8526 43.7064C91.0158 43.8962 91.1594 44.1057 91.277 44.3348C91.401 44.5574 91.5055 44.7996 91.5904 45.0549C91.6753 45.3167 91.7406 45.5851 91.7798 45.8534C91.8189 46.1284 91.8451 46.4164 91.8451 46.7044C91.8451 46.999 91.8255 47.2804 91.7798 47.5554C91.7406 47.8237 91.6753 48.0921 91.5904 48.3539C91.5055 48.6158 91.401 48.8514 91.277 49.0805C91.1529 49.3031 91.0093 49.5191 90.8526 49.7089C90.6893 49.9053 90.513 50.082 90.3171 50.2326C90.1212 50.3897 89.9123 50.5206 89.6838 50.6384C89.3051 50.8283 88.8872 50.9461 88.4366 51.005V51.1097C88.6194 51.0901 88.8023 51.0574 88.9786 51.0181C89.2528 50.9526 89.5075 50.861 89.7491 50.7497C89.9906 50.6384 90.2127 50.501 90.4216 50.3439C90.6305 50.1868 90.8199 50.0166 90.9897 49.8202C91.1595 49.6238 91.3162 49.4078 91.4467 49.1787C91.5773 48.9496 91.6949 48.7009 91.7863 48.4325C91.8842 48.1641 91.9561 47.8892 92.0018 47.6012ZM87.8424 42.9798H87.8032C87.5551 42.9864 87.3201 43.0191 87.098 43.0715C86.876 43.1238 86.6736 43.1958 86.4777 43.294C86.2819 43.3922 86.099 43.5035 85.9293 43.6344C85.766 43.7588 85.6093 43.9093 85.4722 44.073C85.3351 44.2366 85.211 44.4134 85.1065 44.6032C85.0021 44.793 84.9106 45.0025 84.8388 45.225C84.767 45.4476 84.7082 45.6833 84.6756 45.932C84.6364 46.1807 84.6168 46.436 84.6168 46.7044C84.6168 46.9728 84.6364 47.2346 84.6756 47.4768C84.7147 47.7255 84.767 47.9612 84.8388 48.1903C84.9106 48.4129 85.0021 48.6223 85.1065 48.8187C85.211 49.0151 85.3351 49.1918 85.4722 49.3555C85.6093 49.5191 85.766 49.6631 85.9293 49.794C86.0925 49.9249 86.2753 50.0362 86.4712 50.1279C86.6606 50.2195 86.8695 50.2915 87.0915 50.3439C87.3135 50.3962 87.5551 50.429 87.8032 50.4355L87.9991 50.4421L88.1232 50.4355C88.5999 50.4093 89.0373 50.2981 89.4161 50.1082C89.6054 50.01 89.7817 49.8988 89.9449 49.7744C90.1082 49.65 90.2518 49.4995 90.389 49.3358C90.5261 49.1722 90.6436 48.9954 90.7546 48.7991C90.8591 48.6027 90.9505 48.3932 91.0289 48.1707C91.1007 47.9547 91.1594 47.719 91.1986 47.4703C91.2378 47.2281 91.2574 46.9728 91.2574 46.7044C91.2574 46.4426 91.2378 46.1873 91.1986 45.9385C91.1594 45.6898 91.1072 45.4607 91.0354 45.2381C90.957 45.0156 90.8656 44.8061 90.7611 44.6163C90.6567 44.4265 90.5326 44.2497 90.402 44.0861C90.2649 43.929 90.1212 43.7784 89.958 43.6541C89.7948 43.5231 89.6185 43.4119 89.4291 43.3137C89.2398 43.222 89.0373 43.1435 88.8219 43.0911C88.6064 43.0387 88.3778 43.006 88.1362 42.9929L87.8424 42.9798ZM83.8659 45.8076C83.8202 46.0956 83.7941 46.3967 83.7941 46.7109C83.7941 47.0251 83.8202 47.3263 83.8659 47.6143C83.9116 47.9023 83.9834 48.1838 84.0749 48.4521C84.1663 48.7205 84.2838 48.9693 84.4209 49.1984C84.5515 49.4275 84.7082 49.6435 84.8845 49.8398C85.0608 50.0362 85.2502 50.213 85.4591 50.3635C85.6681 50.5206 85.8966 50.6515 86.1447 50.7694C86.3928 50.8872 86.654 50.9723 86.9283 51.0377C87.1111 51.077 87.3005 51.1097 87.5029 51.1294V51.0181C87.3201 50.9985 87.1372 50.9723 86.9675 50.933C86.7063 50.8741 86.4582 50.7824 86.2231 50.6712C85.9946 50.5599 85.7725 50.429 85.5767 50.2719C85.3742 50.1213 85.1914 49.9446 85.0282 49.7482C84.8649 49.5518 84.7148 49.3424 84.5907 49.1133C84.4666 48.8842 84.3622 48.642 84.2773 48.3801C84.1924 48.1183 84.1271 47.8499 84.0879 47.5684C84.0487 47.287 84.0226 46.999 84.0226 46.7044C84.0226 46.4098 84.0422 46.1218 84.0879 45.8404C84.1271 45.5654 84.1924 45.297 84.2773 45.0418C84.3622 44.7865 84.4666 44.5443 84.5907 44.3152C84.7148 44.0861 84.8584 43.8766 85.0282 43.6868C85.1914 43.4904 85.3742 43.3137 85.5767 43.1631C85.7725 43.006 85.9946 42.8751 86.2231 42.7638C86.4582 42.646 86.7063 42.5609 86.9675 42.4954C87.1372 42.4562 87.3201 42.4234 87.5029 42.4103V42.3056C87.307 42.3252 87.1111 42.3514 86.9283 42.3907C86.654 42.4496 86.3928 42.5413 86.1447 42.6525C85.655 42.8816 85.2306 43.1958 84.8845 43.582C84.7082 43.7784 84.558 43.9944 84.4209 44.2235C84.2838 44.4526 84.1728 44.7014 84.0749 44.9698C83.9834 45.2381 83.9116 45.5131 83.8659 45.8076ZM83.1999 46.7044C83.1999 46.364 83.226 46.0302 83.2782 45.7029C83.3305 45.3821 83.4088 45.0679 83.5133 44.7668C83.6178 44.4657 83.7484 44.1843 83.9051 43.9159C84.0553 43.654 84.2381 43.4053 84.434 43.1762C84.8388 42.7245 85.322 42.3645 85.8901 42.1027C86.1708 41.9718 86.4777 41.8736 86.7912 41.8016C87.1046 41.7296 87.4376 41.6903 87.7837 41.6838H87.8359V41.6707L88.0057 41.6772H88.0905V41.6838H88.1493C88.4888 41.6968 88.8088 41.7427 89.1157 41.8147C89.4226 41.8867 89.7164 41.9914 90.0037 42.1223C90.2845 42.2532 90.5457 42.4103 90.7807 42.5871C91.0223 42.7638 91.2378 42.9667 91.4402 43.1958C91.6361 43.4249 91.8124 43.6671 91.9691 43.9355C92.1193 44.1974 92.2499 44.4788 92.3544 44.7799C92.4588 45.081 92.5372 45.3952 92.5894 45.716C92.6417 46.0367 92.6678 46.3706 92.6678 46.7044C92.6678 47.0382 92.6417 47.3721 92.5894 47.6928C92.5372 48.0136 92.4588 48.3278 92.3544 48.6289C92.2499 48.93 92.1193 49.2114 91.9691 49.4798C91.8189 49.7417 91.6426 49.9904 91.4467 50.213C91.2443 50.4421 91.0289 50.645 90.7873 50.8217C90.5522 50.9985 90.291 51.1556 90.0102 51.2865C89.7295 51.4174 89.4291 51.5221 89.1222 51.5941C88.8153 51.6661 88.4954 51.712 88.1558 51.725H88.0971V51.7316H88.0318L87.8424 51.7381V51.725H87.7902C87.4441 51.7185 87.1111 51.6792 86.7977 51.6072C86.4777 51.5352 86.1774 51.4305 85.8966 51.2996C85.6158 51.1687 85.3481 51.0116 85.1065 50.8348C84.8649 50.6515 84.6364 50.4486 84.4405 50.2261C84.2381 49.997 84.0618 49.7548 83.9116 49.4864C83.7614 49.2245 83.6308 48.9431 83.5198 48.642C83.4154 48.3409 83.337 48.0267 83.2848 47.7059C83.226 47.3786 83.1999 47.0448 83.1999 46.7044ZM74.9726 49.7351L76.5593 44.0599L76.5071 43.8766L74.9139 49.5518L74.9726 49.7351ZM80.1506 49.7482L80.1832 49.8595L82.2988 42.4169H82.0442L80.0918 49.5322L80.1506 49.7482ZM77.1796 42.4169H77.0882L79.4715 50.9788H79.5629L77.1796 42.4169ZM72.0147 42.4169H71.7601L74.2087 50.9788H74.3784L72.0147 42.4169ZM71.3618 41.8212H72.4653L74.4437 49.0151L76.3765 42.1092L76.2981 41.8212H76.4614L76.5136 41.6248L76.5658 41.8212H77.6236L79.6217 48.9954L81.5871 41.8212H83.0824L80.3203 51.5287L80.3334 51.581H80.3138L80.1963 52L80.0722 51.581H79.021L77.049 44.5116L75.1163 51.437L75.1554 51.5745H75.0771L74.9922 51.8821L74.9008 51.5745H73.7581C72.8244 48.3212 71.8972 45.0679 70.97 41.8147H71.3618V41.8212ZM70.3236 42.5347V42.4169H68.2798V42.5282H70.3236V42.5347ZM67.3395 50.9788V42.4169H67.1502V50.9788H67.3395ZM64.1531 42.5347H66.2099V42.4169H64.1531V42.5347ZM66.5103 43.1304H63.5589V41.8212H70.9178V43.1304H67.9337V51.581H66.556V43.1304H66.5103ZM62.2791 50.9788V50.8675H58.2047V50.9788H62.2791ZM62.1877 46.6389V46.5211H58.2112V46.6389H62.1877ZM62.2791 42.5347V42.4169H58.2047V42.5282H62.2791V42.5347ZM57.2709 42.4169H57.0816V50.9788H57.2709V42.4169ZM56.7877 41.8212H62.8798V43.1304H57.8717V45.9255H62.7884V47.2412H57.8717V50.2719H62.8798V51.581H56.4939V41.8212H56.7877ZM47.4374 50.9788H47.6137V44.1253L47.4374 43.8635V50.9788ZM54.2477 42.4169H54.0649V49.434L54.2543 49.6828V42.4169H54.2477ZM54.0192 50.9788L47.901 42.4169H47.6398L53.6731 50.9788H54.0192ZM48.2928 41.9456L53.4642 49.1787V41.8212H54.8485V51.1097L55.1815 51.581H53.3662L48.2144 44.2694V51.581H46.8432V42.3187L46.4906 41.8212H48.2079L48.2928 41.9456ZM44.5056 47.1495V47.0841H41.8154V47.1495H44.5056ZM45.1063 46.783L45.4393 47.7452H41.6914L41.2147 46.4818H45.0998V46.783H45.1063ZM42.0178 42.5347V42.4169H39.9741V42.5282H42.0178V42.5347ZM39.0338 50.9788V42.4169H38.8445V50.9788H39.0338ZM35.8539 42.5347H37.9107V42.4169H35.8539V42.5347ZM38.2111 43.1304H35.2597V41.8212H42.6186V43.1304H39.6345V51.581H38.2568V43.1304H38.2111ZM27.0978 50.9788V47.5946H26.928V50.9788H27.0978ZM33.6404 42.4169H33.4706V50.9788H33.6404V42.4169ZM32.5304 46.5408H27.0978V42.4169H26.928V46.652H32.5369V46.5408H32.5304ZM27.6919 45.9385H32.8764V41.8212H34.2411V51.581H32.8764V47.2543H27.6919V51.581H26.3273V41.8212H27.6919V45.9385ZM24.2117 50.2588C24.3488 50.141 24.4859 50.0166 24.61 49.8857L24.4598 49.794C24.3423 49.9315 24.2182 50.0559 24.0811 50.1737C23.8721 50.3504 23.6436 50.5075 23.389 50.6384C23.1343 50.7694 22.8666 50.8675 22.5923 50.933C22.4095 50.9788 22.2267 51.005 22.0308 51.0181V51.1359C22.2593 51.1163 22.4748 51.0836 22.6838 51.0377C22.9776 50.9723 23.2453 50.8675 23.4934 50.7366C23.7481 50.6057 23.9897 50.4421 24.2117 50.2588ZM17.6886 47.5619C17.6429 47.287 17.6168 46.999 17.6168 46.7044C17.6168 46.4033 17.6429 46.1153 17.6886 45.8404C17.7343 45.5589 17.8062 45.297 17.9041 45.0418C18.002 44.793 18.1131 44.5508 18.2436 44.3348C18.3742 44.1123 18.5244 43.9093 18.6942 43.713C18.864 43.5231 19.0468 43.3529 19.2492 43.1958C19.4516 43.0453 19.6606 42.9144 19.8891 42.8031C20.1111 42.6918 20.3527 42.6002 20.6008 42.5347C20.7641 42.4889 20.9273 42.4562 21.0971 42.43V42.3187C20.9208 42.3449 20.751 42.3776 20.5878 42.4169C20.32 42.4823 20.0589 42.574 19.8173 42.6853C19.5757 42.7965 19.3471 42.9275 19.1317 43.0846C18.9227 43.2351 18.7268 43.4119 18.5505 43.6017C18.3742 43.7981 18.211 44.0075 18.0739 44.2301C17.9368 44.4592 17.8127 44.7014 17.7082 44.9698C17.6103 45.2316 17.5319 45.5065 17.4797 45.7945C17.4274 46.0825 17.4013 46.3902 17.4013 46.7109C17.4013 47.0317 17.4274 47.3393 17.4797 47.6339C17.5319 47.9219 17.6103 48.1968 17.7082 48.4587C17.8127 48.7205 17.9302 48.9627 18.0739 49.1918C18.2175 49.4209 18.3742 49.6304 18.5505 49.8202C18.7268 50.01 18.9227 50.1868 19.1382 50.3373C19.3537 50.4944 19.5822 50.6253 19.8238 50.7432C20.0719 50.861 20.3266 50.9526 20.5878 51.0181C20.7575 51.0574 20.9273 51.0901 21.1036 51.1163V50.9919C20.9338 50.9657 20.7706 50.933 20.6073 50.8872C20.3592 50.8217 20.1176 50.7301 19.8891 50.6123C19.6606 50.4944 19.4451 50.3635 19.2492 50.2064C19.0533 50.0559 18.8705 49.8791 18.7007 49.6893C18.5309 49.4929 18.3808 49.29 18.2502 49.0674C18.1196 48.8449 18.0086 48.6092 17.9106 48.3605C17.8127 48.1052 17.7343 47.8368 17.6886 47.5619ZM23.389 42.79C23.8068 43.006 24.1594 43.2809 24.4533 43.6213L24.6035 43.5231C24.4859 43.3922 24.3553 43.2678 24.2182 43.1566C24.0027 42.9733 23.7611 42.8162 23.5065 42.6787C23.2584 42.5478 22.9776 42.4431 22.6838 42.3776C22.4748 42.3252 22.2528 42.2925 22.0308 42.2794V42.4038C22.2267 42.4234 22.4095 42.4496 22.5923 42.4954C22.8731 42.5609 23.1408 42.6591 23.389 42.79ZM24.1529 44.1973C23.8852 43.8308 23.5391 43.5428 23.1212 43.3268C22.9123 43.2155 22.6903 43.1369 22.4618 43.078C22.2267 43.0191 21.9851 42.9929 21.737 42.9864H21.6064L21.4235 42.9995C21.195 43.0191 20.973 43.0584 20.7641 43.1173C20.5551 43.1762 20.3527 43.2482 20.1568 43.3464C19.9609 43.4446 19.7781 43.5559 19.6149 43.6802C19.4451 43.8046 19.2949 43.9486 19.1513 44.1123C19.0076 44.2759 18.8835 44.4526 18.766 44.6425C18.655 44.8323 18.5571 45.0418 18.4722 45.2578C18.3873 45.4738 18.3285 45.7029 18.2893 45.9451C18.2502 46.1873 18.2241 46.4426 18.2241 46.7109C18.2241 46.9728 18.2436 47.2281 18.2893 47.4637C18.3285 47.6994 18.3938 47.9285 18.4722 48.151C18.5571 48.367 18.655 48.5765 18.766 48.7663C18.877 48.9562 19.0076 49.1329 19.1513 49.2965C19.2949 49.4602 19.4516 49.6042 19.6149 49.7351C19.7846 49.866 19.9609 49.9773 20.1568 50.082C20.3462 50.1802 20.5486 50.2588 20.7575 50.3111C20.9665 50.3701 21.1885 50.4093 21.417 50.4224L21.5868 50.4355H21.737C21.9851 50.4355 22.2267 50.4093 22.4552 50.3504C22.6903 50.2981 22.9058 50.213 23.1212 50.1017C23.3302 49.9904 23.5261 49.8595 23.6958 49.7155C23.8656 49.5715 24.0158 49.4013 24.1464 49.218L24.3096 48.9954L25.5111 49.7351L25.2956 50.0035C25.0736 50.2719 24.8385 50.5141 24.5904 50.7235C24.3357 50.933 24.0615 51.1163 23.7742 51.2734C23.4804 51.4305 23.1604 51.5483 22.8209 51.6269C22.4879 51.7054 22.1222 51.7447 21.737 51.7512H21.6913V51.7578H21.4366V51.7447L21.3778 51.7381C21.0514 51.7185 20.7445 51.6727 20.4376 51.6007C20.1372 51.5221 19.8434 51.4174 19.5561 51.2865C19.2753 51.1556 19.0141 50.9985 18.7725 50.8283C18.5309 50.6515 18.3089 50.4552 18.1 50.2326C17.8976 50.01 17.7082 49.7678 17.5515 49.5126C17.3948 49.2573 17.2511 48.9758 17.1336 48.6812C17.0161 48.3867 16.9312 48.0725 16.8724 47.7452C16.8137 47.4179 16.7875 47.0775 16.7875 46.724C16.7875 46.3706 16.8137 46.0302 16.8724 45.7094C16.9312 45.3821 17.0161 45.0679 17.1336 44.7734C17.2511 44.4788 17.3883 44.1974 17.5515 43.9355C17.7147 43.6737 17.8976 43.4315 18.1 43.2089C18.3024 42.9864 18.5309 42.79 18.7725 42.6133C19.0141 42.4365 19.2753 42.286 19.5561 42.1616C19.8369 42.0307 20.1307 41.926 20.4311 41.8539C20.7314 41.7754 21.0448 41.7296 21.3648 41.7034L21.4301 41.6968V41.6772H21.626L21.6847 41.6707V41.6772H21.7304C22.1157 41.6838 22.4813 41.723 22.8143 41.8016C23.1539 41.8801 23.4738 41.998 23.7742 42.1551C24.068 42.3122 24.3423 42.4954 24.5904 42.6984C24.8385 42.9078 25.0671 43.1435 25.276 43.4053L25.4784 43.6606L24.3096 44.4199L24.1529 44.1973ZM13.9276 48.5241L13.8688 48.3736H10.9501L10.8913 48.5241H13.9276ZM15.9256 50.9788H16.1868L13.033 43.1369L12.922 43.4249L15.9256 50.9788ZM12.4062 43.7522L10.7999 47.7714H14.0059L12.4062 43.7522ZM8.62557 50.9788H8.88023L12.3017 42.4169H12.1189L8.62557 50.9788ZM9.08264 51.581H7.73755L11.7206 41.8212H12.909L13.0265 41.5201L13.1506 41.8212H13.1832L13.1636 41.867L17.0683 51.581H15.5273L14.5479 49.1198H10.271L9.29159 51.581H9.08264ZM8.05097 42.4169H7.83549L5.1649 46.3378L5.25631 46.4688L8.05097 42.4169ZM1.35162 42.4169H1.13615L4.49235 47.2673V50.9788H4.68824V47.3066L1.35162 42.4169ZM0.568073 41.8212H1.66504L4.59029 46.1087L7.51555 41.8212H9.18712L5.28896 47.4703V51.581H3.89816V47.4572L0 41.8212H0.568073Z" fill="white"/>
</svg>
